<svg width="1920" height="2168" viewBox="0 0 1920 2168" fill="none" xmlns="http://www.w3.org/2000/svg">
<g opacity="0.2" clip-path="url(#clip0_22_215)">
<path d="M1898.6 26.7949C1901.35 24.6831 1905.3 25.1938 1907.42 27.9461C1909.53 30.6983 1909.02 34.6449 1906.27 36.7653C1903.52 38.8771 1899.57 38.3664 1897.45 35.6141C1895.34 32.8619 1895.85 28.9153 1898.6 26.7949Z" fill="#E54884"/>
<path d="M1718.86 145.745C1722.88 142.655 1728.67 143.408 1731.76 147.433C1734.86 151.457 1734.1 157.238 1730.08 160.328C1726.05 163.426 1720.28 162.673 1717.18 158.649C1714.08 154.625 1714.84 148.843 1718.86 145.745Z" stroke="#FFDE59" stroke-width="4"/>
<path d="M1800.55 30.5076C1804.57 27.4092 1810.34 28.1621 1813.44 32.1953C1816.54 36.2198 1815.79 41.9926 1811.76 45.0911C1807.73 48.1895 1801.96 47.4363 1798.86 43.4119C1795.76 39.3787 1796.52 33.6061 1800.55 30.5076Z" stroke="#FFDE59" stroke-width="4"/>
<path d="M1700.89 11.0608L1696.85 0.199034L1706.3 6.88914L1717.16 2.84744L1710.47 12.307L1714.51 23.1688L1705.05 16.47L1694.19 20.5204L1700.89 11.0608Z" fill="#F44D99"/>
<path d="M1431.32 513.188C1434.07 511.077 1438.01 511.587 1440.13 514.339C1442.24 517.092 1441.73 521.038 1438.98 523.159C1436.23 525.27 1432.28 524.76 1430.16 522.008C1428.05 519.255 1428.56 515.309 1431.32 513.188Z" fill="#E54884"/>
<path d="M1251.58 632.139C1255.6 629.049 1261.38 629.802 1264.48 633.826C1267.57 637.851 1266.81 643.632 1262.79 646.722C1258.77 649.82 1252.99 649.067 1249.9 645.043C1246.8 641.018 1247.55 635.237 1251.58 632.139Z" stroke="#FFDE59" stroke-width="4"/>
<path d="M1333.26 516.901C1337.29 513.803 1343.06 514.556 1346.16 518.589C1349.25 522.613 1348.5 528.386 1344.47 531.484C1340.45 534.583 1334.67 533.83 1331.58 529.805C1328.48 525.772 1329.23 520 1333.26 516.901Z" stroke="#FFDE59" stroke-width="4"/>
<path d="M1233.6 497.454L1229.56 486.592L1239.02 493.283L1249.88 489.241L1243.18 498.7L1247.22 509.562L1237.76 502.863L1226.9 506.914L1233.6 497.454Z" fill="#F44D99"/>
<path d="M247.975 741.516L243.934 730.655L253.392 737.345L264.252 733.303L257.554 742.763L261.596 753.624L252.137 746.926L241.277 750.976L247.975 741.516Z" fill="#F44D99"/>
<path d="M1542.42 1658.32C1540.47 1657.21 1539.79 1654.73 1540.89 1652.79C1542 1650.85 1544.48 1650.16 1546.42 1651.27C1548.36 1652.38 1549.04 1654.85 1547.94 1656.8C1546.83 1658.74 1544.35 1659.42 1542.42 1658.32Z" fill="#FFE843"/>
<path d="M1585.68 1708.25L1571.98 1704.01L1585.68 1699.79L1589.92 1686.07L1594.14 1699.79L1607.85 1704.01L1594.14 1708.25L1589.92 1721.95L1585.68 1708.25Z" fill="#F44D99"/>
<path d="M1660.26 2144.64L1641.36 2138.81L1660.26 2132.97L1666.09 2114.07L1671.92 2132.97L1690.82 2138.81L1671.92 2144.64L1666.09 2163.54L1660.26 2144.64Z" fill="#F44D99"/>
<path d="M586.8 1022.28C586.8 1018.81 589.613 1016 593.091 1016C596.561 1016 599.373 1018.81 599.373 1022.28C599.373 1025.75 596.561 1028.58 593.091 1028.58C589.613 1028.58 586.8 1025.75 586.8 1022.28Z" fill="#E54884"/>
<path d="M571.5 1237.3C571.5 1232.22 575.62 1228.1 580.699 1228.1C585.779 1228.1 589.898 1232.22 589.898 1237.3C589.898 1242.38 585.779 1246.5 580.699 1246.5C575.62 1246.5 571.5 1242.38 571.5 1237.3Z" stroke="#FFDE59" stroke-width="4"/>
<path d="M500.543 1131.71C500.543 1126.63 504.662 1122.51 509.741 1122.51C514.821 1122.51 518.939 1126.63 518.939 1131.71C518.939 1136.79 514.821 1140.91 509.741 1140.91C504.662 1140.91 500.543 1136.79 500.543 1131.71Z" stroke="#FFDE59" stroke-width="4"/>
<path d="M301.496 1204.06L290.42 1200.64L301.496 1197.22L304.906 1186.15L308.324 1197.22L319.401 1200.64L308.324 1204.06L304.906 1215.13L301.496 1204.06Z" fill="#F44D99"/>
<path d="M678.959 1070.59L660.06 1064.76L678.959 1058.93L684.792 1040.03L690.624 1058.93L709.523 1064.76L690.624 1070.59L684.792 1089.5L678.959 1070.59Z" fill="#F44D99"/>
<path d="M1907.57 839.453C1907.57 836.934 1909.62 834.892 1912.14 834.892C1914.65 834.892 1916.7 836.934 1916.7 839.453C1916.7 841.971 1914.65 844.014 1912.14 844.014C1909.62 844.014 1907.57 841.971 1907.57 839.453Z" fill="#E54884"/>
<path d="M1692.26 1628.92C1692.26 1625.23 1695.24 1622.24 1698.93 1622.24C1702.62 1622.24 1705.6 1625.23 1705.6 1628.92C1705.6 1632.6 1702.62 1635.59 1698.93 1635.59C1695.24 1635.59 1692.26 1632.6 1692.26 1628.92Z" stroke="#FFDE59" stroke-width="2.901"/>
<path d="M1640.8 1552.34C1640.8 1548.65 1643.78 1545.67 1647.47 1545.67C1651.16 1545.67 1654.14 1548.65 1654.14 1552.34C1654.14 1556.02 1651.16 1559.01 1647.47 1559.01C1643.78 1559.01 1640.8 1556.02 1640.8 1552.34Z" stroke="#FFDE59" stroke-width="2.901"/>
<path d="M585.934 1887.75C585.934 1884.28 588.747 1881.47 592.226 1881.47C595.696 1881.47 598.509 1884.28 598.509 1887.75C598.509 1891.22 595.696 1894.04 592.226 1894.04C588.747 1894.04 585.934 1891.22 585.934 1887.75Z" fill="#E54884"/>
<path d="M570.635 2102.77C570.635 2097.69 574.754 2093.57 579.834 2093.57C584.913 2093.57 589.032 2097.69 589.032 2102.77C589.032 2107.85 584.913 2111.97 579.834 2111.97C574.754 2111.97 570.635 2107.85 570.635 2102.77Z" stroke="#FFDE59" stroke-width="4"/>
<path d="M255.65 1963.43C255.65 1958.35 259.769 1954.23 264.849 1954.23C269.929 1954.23 274.048 1958.35 274.048 1963.43C274.048 1968.51 269.929 1972.63 264.849 1972.63C259.769 1972.63 255.65 1968.51 255.65 1963.43Z" stroke="#FFDE59" stroke-width="4"/>
<path d="M56.6039 2043.56L45.5273 2040.14L56.6039 2036.73L60.0132 2025.66L63.4315 2036.73L74.5076 2040.14L63.4315 2043.56L60.0132 2054.63L56.6039 2043.56Z" fill="#F44D99"/>
<path d="M168.459 1768.55C165.776 1767.03 164.842 1763.62 166.365 1760.94C167.896 1758.25 171.306 1757.32 173.989 1758.85C176.663 1760.37 177.606 1763.78 176.074 1766.47C174.551 1769.15 171.141 1770.08 168.459 1768.55Z" fill="#FFE843"/>
<path d="M-15.912 1664.31L-34.811 1658.47L-15.912 1652.64L-10.0793 1633.74L-4.24712 1652.64L14.6523 1658.47L-4.24712 1664.31L-10.0793 1683.21L-15.912 1664.31Z" fill="#F44D99"/>
<path d="M1072.18 2037.33C1072.18 2033.68 1075.15 2030.71 1078.8 2030.71C1082.46 2030.71 1085.42 2033.68 1085.42 2037.33C1085.42 2040.98 1082.46 2043.95 1078.8 2043.95C1075.15 2043.95 1072.18 2040.98 1072.18 2037.33Z" fill="#FFE843"/>
<path d="M955.402 1716.07C955.402 1707.73 962.16 1700.98 970.494 1700.98C978.827 1700.98 985.585 1707.73 985.585 1716.07C985.585 1724.41 978.827 1731.17 970.494 1731.17C962.16 1731.17 955.402 1724.41 955.402 1716.07Z" stroke="#FFDE59" stroke-width="4.759"/>
<path d="M1269.82 2010.47C1269.82 2004.42 1274.71 1999.52 1280.75 1999.52C1286.8 1999.52 1291.69 2004.42 1291.69 2010.47C1291.69 2016.51 1286.8 2021.41 1280.75 2021.41C1274.71 2021.41 1269.82 2016.51 1269.82 2010.47Z" stroke="#FFDE59" stroke-width="4.759"/>
<path d="M873.186 208.578C873.186 203.8 877.054 199.932 881.831 199.932C886.599 199.932 890.476 203.8 890.476 208.578C890.476 213.356 886.599 217.224 881.831 217.224C877.054 217.224 873.186 213.356 873.186 208.578Z" fill="#F44D99"/>
<path d="M801.855 162.215C801.855 159.142 804.347 156.65 807.419 156.65C810.491 156.65 812.983 159.142 812.983 162.215C812.983 165.287 810.491 167.78 807.419 167.78C804.347 167.78 801.855 165.287 801.855 162.215Z" fill="#FFE843"/>
<path d="M703.578 173.959C703.578 170.887 706.071 168.394 709.142 168.394C712.214 168.394 714.707 170.887 714.707 173.959C714.707 177.032 712.214 179.524 709.142 179.524C706.071 179.524 703.578 177.032 703.578 173.959Z" fill="#FFE843"/>
<path d="M788.564 457.963L777.106 454.432L788.564 450.901L792.094 439.433L795.633 450.901L807.091 454.432L795.633 457.963L792.094 469.43L788.564 457.963Z" fill="#FFE843"/>
<path d="M1901.47 1073.68C1903.33 1076.09 1902.88 1079.54 1900.47 1081.39C1898.06 1083.25 1894.61 1082.8 1892.76 1080.39C1890.91 1077.98 1891.37 1074.53 1893.77 1072.68C1896.18 1070.83 1899.62 1071.28 1901.47 1073.68Z" fill="#E54884"/>
<path d="M1797.47 916.48C1800.18 920.002 1799.52 925.048 1796 927.757C1792.48 930.465 1787.42 929.808 1784.71 926.285C1782.01 922.763 1782.67 917.717 1786.19 915.008C1789.71 912.3 1794.76 912.957 1797.47 916.48Z" stroke="#FFDE59" stroke-width="3.498"/>
<path d="M1898.23 987.924C1900.94 991.447 1900.28 996.492 1896.76 999.201C1893.24 1001.91 1888.19 1001.25 1885.48 997.73C1882.77 994.207 1883.43 989.162 1886.95 986.453C1890.48 983.744 1895.52 984.402 1898.23 987.924Z" stroke="#FFDE59" stroke-width="3.498"/>
<path d="M1915.24 900.754L1924.73 897.223L1918.88 905.497L1922.42 914.991L1914.14 909.132L1904.65 912.672L1910.5 904.398L1906.97 894.904L1915.24 900.754Z" fill="#F44D99"/>
<path d="M1739.27 1054.54C1739.27 1049.02 1743.75 1044.53 1749.27 1044.53C1754.8 1044.53 1759.28 1049.02 1759.28 1054.54C1759.28 1060.07 1754.8 1064.55 1749.27 1064.55C1743.75 1064.55 1739.27 1060.07 1739.27 1054.54Z" fill="#F44D99"/>
<path d="M1656.69 1000.86C1656.69 997.306 1659.57 994.424 1663.12 994.424C1666.68 994.424 1669.57 997.306 1669.57 1000.86C1669.57 1004.43 1666.68 1007.31 1663.12 1007.31C1659.57 1007.31 1656.69 1004.43 1656.69 1000.86Z" fill="#FFE843"/>
<path d="M1542.91 1014.46C1542.91 1010.9 1545.79 1008.02 1549.35 1008.02C1552.9 1008.02 1555.79 1010.9 1555.79 1014.46C1555.79 1018.03 1552.9 1020.91 1549.35 1020.91C1545.79 1020.91 1542.91 1018.03 1542.91 1014.46Z" fill="#FFE843"/>
<path d="M353.434 1991.12C353.434 1986.04 357.553 1981.92 362.633 1981.92C367.712 1981.92 371.831 1986.04 371.831 1991.12C371.831 1996.2 367.712 2000.32 362.633 2000.32C357.553 2000.32 353.434 1996.2 353.434 1991.12Z" stroke="#FFDE59" stroke-width="4"/>
<path d="M311.898 1856.11C311.898 1851.03 316.017 1846.91 321.096 1846.91C326.176 1846.91 330.295 1851.03 330.295 1856.11C330.295 1861.19 326.176 1865.31 321.096 1865.31C316.017 1865.31 311.898 1861.19 311.898 1856.11Z" stroke="#FFDE59" stroke-width="4"/>
<path d="M235.73 1923.26L224.654 1919.84L235.73 1916.43L239.14 1905.36L242.558 1916.43L253.634 1919.84L242.558 1923.26L239.14 1934.33L235.73 1923.26Z" fill="#F44D99"/>
<path d="M4.13821 2032.76C4.95164 2035.74 3.20362 2038.81 0.226827 2039.62C-2.74997 2040.45 -5.8221 2038.7 -6.63553 2035.72C-7.45761 2032.74 -5.70981 2029.67 -2.73302 2028.86C0.24378 2028.04 3.31613 2029.78 4.13821 2032.76Z" fill="#FFE843"/>
<path d="M68.355 1790.27C68.355 1786.57 71.3578 1783.57 75.0616 1783.57C78.7567 1783.57 81.7593 1786.57 81.7593 1790.27C81.7593 1793.97 78.7567 1796.97 75.0616 1796.97C71.3578 1796.97 68.355 1793.97 68.355 1790.27Z" fill="#FFE843"/>
<path d="M1423.8 1060.58C1422.02 1060.58 1420.58 1059.14 1420.58 1057.35C1420.58 1055.57 1422.02 1054.12 1423.8 1054.12C1425.59 1054.12 1427.03 1055.57 1427.03 1057.35C1427.03 1059.14 1425.59 1060.58 1423.8 1060.58Z" fill="#FFE843"/>
<path d="M1082.52 1297.34C1080.66 1297.34 1079.15 1295.83 1079.15 1293.97C1079.15 1292.11 1080.66 1290.6 1082.52 1290.6C1084.38 1290.6 1085.89 1292.11 1085.89 1293.97C1085.89 1295.83 1084.38 1297.34 1082.52 1297.34Z" fill="#E54884"/>
<path d="M1108.4 1247.95L1105.28 1258.08L1102.16 1247.95L1092.02 1244.82L1102.16 1241.7L1105.28 1231.57L1108.4 1241.7L1118.53 1244.82L1108.4 1247.95Z" fill="#F44D99"/>
<path d="M1062.14 1083.24C1057.9 1083.24 1054.46 1079.79 1054.46 1075.55C1054.46 1071.3 1057.9 1067.86 1062.14 1067.86C1066.39 1067.86 1069.84 1071.3 1069.84 1075.55C1069.84 1079.79 1066.39 1083.24 1062.14 1083.24Z" fill="#F44D99"/>
<path d="M1029.99 1231.43C1028.01 1231.43 1026.4 1229.82 1026.4 1227.84C1026.4 1225.86 1028.01 1224.25 1029.99 1224.25C1031.98 1224.25 1033.59 1225.86 1033.59 1227.84C1033.59 1229.82 1031.98 1231.43 1029.99 1231.43Z" fill="#FFE843"/>
<path d="M1283.98 1158.53L1280.83 1168.73L1277.69 1158.53L1267.5 1155.39L1277.69 1152.24L1280.83 1142.05L1283.98 1152.24L1294.18 1155.39L1283.98 1158.53Z" fill="#FFE843"/>
<path d="M843.6 2157.46C843.6 2151.96 848.056 2147.5 853.568 2147.5C859.072 2147.5 863.528 2151.96 863.528 2157.46C863.528 2162.97 859.072 2167.44 853.568 2167.44C848.056 2167.44 843.6 2162.97 843.6 2157.46Z" fill="#FFE843"/>
<path d="M1178.14 1584.42C1178.14 1579.65 1182.01 1575.78 1186.78 1575.78C1191.55 1575.78 1195.42 1579.65 1195.42 1584.42C1195.42 1589.2 1191.55 1593.07 1186.78 1593.07C1182.01 1593.07 1178.14 1589.2 1178.14 1584.42Z" stroke="#F44D99" stroke-width="2"/>
<path d="M81.2397 543.8C81.2397 539.022 85.108 535.154 89.8762 535.154C94.6531 535.154 98.5215 539.022 98.5215 543.8C98.5215 548.569 94.6531 552.437 89.8762 552.437C85.108 552.437 81.2397 548.569 81.2397 543.8Z" fill="#F44D99"/>
<path d="M456.955 567.877C456.955 563.498 460.503 559.949 464.873 559.949C469.252 559.949 472.8 563.498 472.8 567.877C472.8 572.248 469.252 575.797 464.873 575.797C460.503 575.797 456.955 572.248 456.955 567.877Z" fill="#FFE843"/>
<path d="M330.07 286.859C330.07 281.779 334.189 277.668 339.269 277.668C344.348 277.668 348.467 281.779 348.467 286.859C348.467 291.94 344.348 296.06 339.269 296.06C334.189 296.06 330.07 291.94 330.07 286.859Z" stroke="#FFDE59" stroke-width="6"/>
<path d="M163.413 350.073C160.731 348.541 159.797 345.131 161.328 342.448C162.851 339.774 166.26 338.831 168.943 340.363C171.625 341.886 172.559 345.296 171.037 347.979C169.505 350.662 166.096 351.596 163.413 350.073Z" fill="#FFE843"/>
<path d="M188.25 988.807L185.48 980.325L177 977.556L185.48 974.795L188.25 966.305L191.01 974.795L199.499 977.556L191.01 980.325L188.25 988.807Z" fill="#FFE843"/>
<path d="M1068.45 1567.51C1063.68 1567.51 1059.81 1563.64 1059.81 1558.87C1059.81 1554.1 1063.68 1550.22 1068.45 1550.22C1073.23 1550.22 1077.1 1554.1 1077.1 1558.87C1077.1 1563.64 1073.23 1567.51 1068.45 1567.51Z" fill="#F44D99"/>
<path d="M347.992 2053.67C345.145 2050.08 529.255 1898.24 533.772 1894.65L801.474 1680.63C805.991 1677.04 814.575 1676.36 813.2 1681.05C811.832 1685.74 816.332 1690.07 811.815 1693.66L549.582 1902.9" fill="url(#paint0_linear_22_215)"/>
<path d="M557.568 1622.74C555.707 1620.39 675.601 1521.52 678.534 1519.18L852.85 1379.82C855.8 1377.48 861.382 1377.05 860.491 1380.09C859.599 1383.15 862.524 1385.97 859.591 1388.31L688.832 1524.55" fill="url(#paint1_linear_22_215)"/>
<path d="M267.981 269.342C266.45 267.412 365.315 185.885 367.738 183.955L511.481 69.0383C513.904 67.1083 518.516 66.7535 517.78 69.2634L517.772 69.272C517.036 71.7905 519.45 74.11 517.028 76.04L376.227 188.386" fill="url(#paint2_linear_22_215)"/>
<path d="M22.8459 237.579C35.5838 224.848 56.2139 224.831 68.9345 237.553C81.6551 250.267 81.6377 270.909 68.8998 283.64C56.1706 296.379 35.5321 296.397 22.8201 283.674C10.0995 270.952 10.1166 250.319 22.8459 237.579Z" fill="#FFBC4A"/>
<path d="M63.8809 233.531C64.9972 234.647 64.7983 236.664 63.3878 238.074C61.9859 239.476 59.9699 239.675 58.8536 238.559L52.7873 232.501C51.7316 231.445 49.9491 231.514 48.5472 232.916C47.4915 233.981 46.903 235.547 47.5953 236.239L68.7704 257.426C69.9819 258.629 69.575 261 68.1645 262.402C66.7626 263.813 64.3916 264.22 63.1888 263.008L47.0933 246.919C46.2453 246.071 44.2726 246.764 43.0611 247.975C41.9362 249.1 42.2476 249.896 41.8928 251.775L50.719 260.594C51.7315 261.615 51.4461 263.545 50.0443 264.956C48.6424 266.358 46.7042 266.643 45.6918 265.622L34.1913 254.129C33.326 253.263 31.7336 253.454 30.3231 254.856C29.1981 255.981 28.6012 257.478 29.2329 258.11L41.2869 270.166C42.2647 271.144 41.6679 273.325 40.2661 274.735C38.8642 276.137 36.6746 276.726 35.6968 275.748L23.8157 263.874C22.9157 262.974 21.2975 263.129 19.887 264.54C18.762 265.665 18.191 267.18 18.84 267.829L25.4424 274.433C26.3424 275.333 25.9618 277.167 24.5513 278.57C23.1494 279.98 21.3149 280.361 20.4063 279.461L18.7449 277.79C19.792 279.954 21.2889 281.78 23.0023 283.494C35.7142 296.216 56.2573 296.285 68.9952 283.554C81.733 270.815 81.7417 250.182 69.0298 237.46C67.204 235.634 64.8242 234.474 63.1195 232.778L63.8809 233.531Z" fill="#FF9151"/>
<path d="M1418.65 298.162C1431.38 285.431 1452.01 285.414 1464.73 298.136C1477.46 310.85 1477.44 331.492 1464.7 344.223C1451.97 356.963 1431.33 356.98 1418.62 344.258C1405.9 331.535 1405.92 310.902 1418.65 298.162Z" fill="#FFBC4A"/>
<path d="M1459.68 294.114C1460.8 295.23 1460.6 297.247 1459.19 298.657C1457.79 300.059 1455.77 300.258 1454.65 299.142L1448.59 293.084C1447.53 292.028 1445.75 292.097 1444.35 293.499C1443.29 294.564 1442.7 296.13 1443.4 296.822L1464.57 318.009C1465.78 319.212 1465.37 321.583 1463.96 322.985C1462.56 324.396 1460.19 324.803 1458.99 323.591L1442.89 307.502C1442.05 306.654 1440.07 307.347 1438.86 308.558C1437.74 309.683 1438.05 310.479 1437.69 312.357L1446.52 321.177C1447.53 322.198 1447.25 324.128 1445.84 325.539C1444.44 326.941 1442.5 327.226 1441.49 326.205L1429.99 314.712C1429.13 313.846 1427.53 314.037 1426.12 315.439C1425 316.564 1424.4 318.061 1425.03 318.693L1437.09 330.749C1438.06 331.727 1437.47 333.908 1436.07 335.318C1434.66 336.72 1432.47 337.309 1431.5 336.331L1419.62 324.457C1418.72 323.557 1417.1 323.712 1415.69 325.123C1414.56 326.248 1413.99 327.763 1414.64 328.412L1421.24 335.016C1422.14 335.916 1421.76 337.751 1420.35 339.153C1418.95 340.563 1417.12 340.944 1416.21 340.044L1414.55 338.374C1415.59 340.537 1417.09 342.363 1418.8 344.077C1431.51 356.799 1452.06 356.869 1464.8 344.137C1477.53 331.398 1477.54 310.765 1464.83 298.043C1463 296.217 1460.62 295.057 1458.92 293.361L1459.68 294.114Z" fill="#FF9151"/>
<path d="M1719.72 1308.34C1735.84 1292.21 1761.95 1292.2 1778.04 1308.29C1794.14 1324.39 1794.12 1350.51 1778.01 1366.63C1761.89 1382.75 1735.78 1382.77 1719.67 1366.67C1703.58 1350.57 1703.61 1324.45 1719.72 1308.34Z" fill="#FFBC4A"/>
<path d="M1771.65 1303.2C1773.07 1304.62 1772.81 1307.17 1771.03 1308.95C1769.25 1310.72 1766.7 1310.98 1765.29 1309.57L1757.61 1301.89C1756.28 1300.56 1754.02 1300.65 1752.25 1302.42C1750.9 1303.76 1750.16 1305.75 1751.03 1306.64L1777.84 1333.44C1779.37 1334.97 1778.85 1337.97 1777.07 1339.74C1775.3 1341.52 1772.3 1342.04 1770.77 1340.51L1750.4 1320.15C1749.33 1319.07 1746.83 1319.95 1745.3 1321.48C1743.87 1322.91 1744.28 1323.91 1743.83 1326.29L1754.99 1337.46C1756.28 1338.75 1755.91 1341.2 1754.13 1342.97C1752.36 1344.74 1749.91 1345.11 1748.62 1343.82L1734.07 1329.27C1732.97 1328.17 1730.96 1328.41 1729.18 1330.2C1727.76 1331.61 1727 1333.51 1727.8 1334.31L1743.05 1349.56C1744.29 1350.8 1743.54 1353.57 1741.76 1355.35C1739.98 1357.12 1737.21 1357.87 1735.98 1356.64L1720.95 1341.6C1719.8 1340.46 1717.75 1340.67 1715.97 1342.44C1714.54 1343.87 1713.82 1345.79 1714.65 1346.61L1723 1354.97C1724.13 1356.11 1723.65 1358.43 1721.87 1360.21C1720.1 1361.98 1717.77 1362.47 1716.63 1361.33L1714.53 1359.22C1715.84 1361.96 1717.74 1364.27 1719.91 1366.43C1736 1382.53 1762.01 1382.63 1778.12 1366.51C1794.24 1350.39 1794.26 1324.28 1778.16 1308.17C1775.85 1305.87 1772.84 1304.4 1770.69 1302.24L1771.65 1303.2Z" fill="#FF9151"/>
<path d="M1976.88 2021.55C1976.88 2045.61 1957.4 2065.12 1933.38 2065.12C1909.36 2065.12 1889.88 2045.61 1889.88 2021.55C1889.88 1997.49 1909.36 1977.99 1933.38 1977.99C1957.4 1977.99 1976.88 1997.49 1976.88 2021.55Z" fill="#6679BF"/>
<path d="M1899.86 2026.54C1899.86 2024.08 1901.85 2022.08 1904.31 2022.08C1906.76 2022.08 1908.75 2024.08 1908.75 2026.54C1908.75 2029 1906.76 2030.99 1904.31 2030.99C1901.85 2030.99 1899.86 2029 1899.86 2026.54Z" fill="#303B72"/>
<path d="M1908.89 1999.26C1908.89 1994.08 1913.08 1989.9 1918.24 1989.9C1923.4 1989.9 1927.59 1994.08 1927.59 1999.26C1927.59 2004.43 1923.4 2008.62 1918.24 2008.62C1913.08 2008.62 1908.89 2004.43 1908.89 1999.26Z" fill="#303B72"/>
<path d="M130.998 1109.78C130.998 1127.81 116.408 1142.42 98.409 1142.42C80.4099 1142.42 65.8201 1127.81 65.8201 1109.78C65.8201 1091.76 80.4099 1077.15 98.409 1077.15C116.408 1077.15 130.998 1091.76 130.998 1109.78Z" fill="#6679BF"/>
<path d="M91.0706 1124.15C91.0706 1120.09 94.3588 1116.8 98.4084 1116.8C102.458 1116.8 105.746 1120.09 105.746 1124.15C105.746 1128.21 102.458 1131.5 98.4084 1131.5C94.3588 1131.5 91.0706 1128.21 91.0706 1124.15Z" fill="#303B72"/>
<path d="M99.7412 1131.5C99.7412 1128.55 102.138 1126.15 105.081 1126.15C108.032 1126.15 110.42 1128.55 110.42 1131.5C110.42 1134.45 108.032 1136.85 105.081 1136.85C102.138 1136.85 99.7412 1134.45 99.7412 1131.5Z" fill="#303B72"/>
<path d="M106.084 1093.04C106.084 1090.65 108.022 1088.7 110.42 1088.7C112.817 1088.7 114.755 1090.65 114.755 1093.04C114.755 1095.44 112.817 1097.38 110.42 1097.38C108.022 1097.38 106.084 1095.44 106.084 1093.04Z" fill="#303B72"/>
<path d="M73.3049 1113.51C73.3049 1111.67 74.7935 1110.18 76.6278 1110.18C78.4708 1110.18 79.9587 1111.67 79.9587 1113.51C79.9587 1115.36 78.4708 1116.85 76.6278 1116.85C74.7935 1116.85 73.3049 1115.36 73.3049 1113.51Z" fill="#303B72"/>
<path d="M80.063 1093.08C80.063 1089.2 83.1954 1086.06 87.0634 1086.06C90.9315 1086.06 94.0728 1089.2 94.0728 1093.08C94.0728 1096.96 90.9315 1100.1 87.0634 1100.1C83.1954 1100.1 80.063 1096.96 80.063 1093.08Z" fill="#303B72"/>
</g>
<defs>
<linearGradient id="paint0_linear_22_215" x1="775.56" y1="2009.06" x2="350.588" y2="2055.04" gradientUnits="userSpaceOnUse">
<stop stop-color="white"/>
<stop offset="1" stop-color="#2AB0FF"/>
</linearGradient>
<linearGradient id="paint1_linear_22_215" x1="835.918" y1="1594.22" x2="559.193" y2="1624.16" gradientUnits="userSpaceOnUse">
<stop stop-color="white"/>
<stop offset="1" stop-color="#2AB0FF"/>
</linearGradient>
<linearGradient id="paint2_linear_22_215" x1="497.483" y1="246.105" x2="269.296" y2="270.797" gradientUnits="userSpaceOnUse">
<stop stop-color="white"/>
<stop offset="1" stop-color="#2AB0FF"/>
</linearGradient>
<clipPath id="clip0_22_215">
<rect width="4100" height="2168" fill="white" transform="translate(4004 2168) rotate(-180)"/>
</clipPath>
</defs>
</svg>
