<!DOCTYPE svg PUBLIC "-//W3C//DTD SVG 1.1//EN" "http://www.w3.org/Graphics/SVG/1.1/DTD/svg11.dtd">
<!-- Uploaded to: SVG Repo, www.svgrepo.com, Transformed by: SVG Repo Mixer Tools -->
<svg height="800px" width="800px" version="1.1" id="Capa_1" xmlns="http://www.w3.org/2000/svg" xmlns:xlink="http://www.w3.org/1999/xlink" viewBox="0 0 51.356 51.356" xml:space="preserve" fill="#000000">
<g id="SVGRepo_bgCarrier" stroke-width="0"/>
<g id="SVGRepo_tracerCarrier" stroke-linecap="round" stroke-linejoin="round"/>
<g id="SVGRepo_iconCarrier"> <g> <g> <path style="fill:#3333335d;" d="M7.012,51.356h37.333c1.379,0,2.5-1.121,2.5-2.5V2.5c0-1.378-1.121-2.5-2.5-2.5H7.012 c-1.379,0-2.5,1.122-2.5,2.5v46.355C4.512,50.235,5.634,51.356,7.012,51.356z M7.512,3h36.333v45.355H7.512V3z"/> <path style="fill:#3333335d;" d="M37.542,9.606h-5.389c0.006-0.043,0.025-0.08,0.025-0.125v-1.25c0-0.553-0.447-1-1-1h-3.062V6.606 c0-0.553-0.447-1-1-1h-2.875c-0.552,0-1,0.447-1,1v0.625h-3.063c-0.552,0-1,0.447-1,1v1.25c0,0.045,0.02,0.082,0.025,0.125h-5.388 c-0.782,0-1.42,0.637-1.42,1.42v32.201c0,0.783,0.638,1.42,1.42,1.42h15.871c0.566,0,1.285-0.271,1.712-0.645l6.786-5.951 c0.45-0.393,0.776-1.113,0.776-1.711V11.026C38.962,10.243,38.324,9.606,37.542,9.606z M31.093,41.438v-3.662h4.176L31.093,41.438 z M36.832,35.647h-6.449c-0.783,0-1.42,0.636-1.42,1.419v5.451H14.526h-0.001l0.001-30.781h22.306V35.647z"/> <path style="fill:#3333335d;" d="M20.003,32.108c0.038,0.002,0.076,0.002,0.114,0.002c1,0,1.908-0.426,2.701-1.268 c1.835-1.95,6.375-2.423,8.913-1.514c0.507,0.182,1.363,0.583,1.406,1.228c0.019,0.276,0.253,0.479,0.532,0.466 c0.275-0.019,0.484-0.257,0.466-0.532c-0.06-0.9-0.795-1.646-2.066-2.103c-2.874-1.028-7.859-0.48-9.979,1.77 c-0.625,0.665-1.301,0.974-2.052,0.953c-1.781-0.056-3.394-1.975-3.411-1.993c-0.177-0.213-0.492-0.242-0.704-0.066 s-0.242,0.49-0.066,0.703C15.933,29.846,17.768,32.036,20.003,32.108z"/> <path style="fill:#3333335d;" d="M20.003,26.914c0.038,0.001,0.076,0.002,0.114,0.002c1,0,1.908-0.427,2.701-1.27 c1.836-1.949,6.377-2.42,8.912-1.514c0.507,0.182,1.364,0.583,1.407,1.229c0.019,0.276,0.253,0.482,0.532,0.466 c0.275-0.018,0.484-0.257,0.466-0.532c-0.06-0.9-0.795-1.647-2.067-2.104c-2.876-1.03-7.859-0.481-9.979,1.769 c-0.625,0.664-1.301,0.979-2.052,0.953c-1.781-0.055-3.394-1.975-3.411-1.993c-0.177-0.212-0.492-0.241-0.704-0.066 c-0.212,0.176-0.242,0.49-0.066,0.703C15.933,24.652,17.768,26.842,20.003,26.914z"/> <path style="fill:#3333335d;" d="M20.003,21.727c0.038,0.002,0.076,0.002,0.114,0.002c1,0,1.908-0.426,2.701-1.268 c1.835-1.95,6.376-2.423,8.912-1.515c0.507,0.182,1.364,0.583,1.407,1.229c0.019,0.275,0.253,0.477,0.532,0.466 c0.275-0.02,0.484-0.258,0.466-0.533c-0.06-0.9-0.795-1.647-2.067-2.103c-2.876-1.03-7.859-0.481-9.979,1.771 c-0.625,0.664-1.301,0.959-2.052,0.953c-1.781-0.056-3.394-1.975-3.411-1.994c-0.177-0.212-0.492-0.242-0.704-0.066 c-0.212,0.176-0.242,0.491-0.066,0.703C15.933,19.465,17.768,21.656,20.003,21.727z"/> </g> </g> </g>
</svg>