<svg width="955" height="791" viewBox="0 0 955 791" fill="none" xmlns="http://www.w3.org/2000/svg">
<path d="M946.631 324.028V623.97C946.631 629.19 943.827 634.006 939.287 636.57L921.68 646.507L917.521 365.165L917.026 331.675L584.814 134.469L601.118 125.036C606.473 121.937 613.071 121.937 618.427 125.036L938.731 310.313C941.656 312.007 943.903 314.556 945.237 317.54C946.143 319.548 946.631 321.753 946.631 324.028Z" fill="#CDE9F9"/>
<path d="M946.632 324.028V623.97C946.632 629.19 943.829 634.006 939.288 636.57L921.682 646.507L917.522 365.165V333.163L945.238 317.54C946.145 319.548 946.632 321.753 946.632 324.028Z" fill="#AECFDC"/>
<path d="M584.819 441.697V134.465L910.579 322.895C917.45 326.87 921.684 334.215 921.684 342.164V646.509L593.733 457.151C588.218 453.966 584.819 448.074 584.819 441.697Z" fill="#7CCAF1"/>
<path d="M584.819 441.697V134.465L910.579 322.895C917.45 326.87 921.684 334.215 921.684 342.164V646.509L593.733 457.151C588.218 453.966 584.819 448.074 584.819 441.697Z" fill="url(#paint0_linear_29_7562)"/>
<path d="M602.555 368.395L679.047 412.641C682.502 414.639 684.63 418.331 684.63 422.327V422.499C684.63 425.967 680.883 428.135 677.884 426.401L601.505 382.221C598.899 380.714 597.295 377.929 597.295 374.915V371.436C597.294 368.733 600.217 367.043 602.555 368.395Z" fill="#17A1DB"/>
<path d="M602.555 389.531L679.047 433.776C682.502 435.774 684.63 439.467 684.63 443.463V443.635C684.63 447.103 680.883 449.27 677.884 447.536L601.505 403.356C598.899 401.85 597.295 399.065 597.295 396.051V392.572C597.294 389.868 600.217 388.178 602.555 389.531Z" fill="#E7F6FD"/>
<path d="M602.555 410.168L679.047 454.413C682.502 456.412 684.63 460.104 684.63 464.1V464.272C684.63 467.74 680.883 469.907 677.884 468.173L601.505 423.994C598.899 422.488 597.295 419.703 597.295 416.689V413.21C597.294 410.506 600.217 408.815 602.555 410.168Z" fill="#17A1DB"/>
<path d="M602.555 431.303L679.047 475.548C682.502 477.547 684.63 481.239 684.63 485.235V485.407C684.63 488.875 680.883 491.042 677.884 489.308L601.505 445.128C598.899 443.622 597.295 440.837 597.295 437.823V434.344C597.294 431.641 600.217 429.951 602.555 431.303Z" fill="#17A1DB"/>
<path d="M712.944 240.687L904.399 351.431C906.726 352.777 908.16 355.265 908.16 357.957V559.343C908.16 564.128 902.99 567.119 898.853 564.726L715.285 458.544C711.109 456.13 708.537 451.666 708.537 446.836V243.236C708.538 240.97 710.985 239.554 712.944 240.687Z" fill="url(#paint1_linear_29_7562)"/>
<path d="M701.515 245.266L892.969 356.01C895.297 357.356 896.73 359.845 896.73 362.536V563.923C896.73 568.707 891.56 571.698 887.424 569.305L703.855 463.124C699.679 460.709 697.107 456.246 697.107 451.415V247.815C697.108 245.549 699.556 244.133 701.515 245.266Z" fill="white"/>
<path d="M709.09 287.606V389.171C709.09 392.499 710.875 395.572 713.763 397.217L762.534 424.983C766.743 427.379 771.967 424.334 771.967 419.484V320.16C771.967 316.65 770.076 313.413 767.022 311.693L716.504 283.259C713.187 281.393 709.09 283.794 709.09 287.606Z" fill="url(#paint2_linear_29_7562)"/>
<path d="M784.327 329.174L784.428 360.567C784.437 363.38 785.935 365.975 788.363 367.387L877.262 419.071C880.366 420.875 884.254 418.632 884.254 415.037V384.753C884.254 381.71 882.634 378.898 880.003 377.377L790.488 325.598C787.745 324.012 784.318 326.001 784.327 329.174Z" fill="#BD8AAE"/>
<path d="M789.926 383.007L880.2 435.225C882.71 436.676 884.256 439.358 884.256 442.261V444.377C884.256 447.766 880.593 449.885 877.663 448.19L788.003 396.328C785.715 395.005 784.306 392.56 784.306 389.913V386.258C784.306 383.368 787.428 381.562 789.926 383.007Z" fill="#BD8AAE"/>
<path d="M784.442 415.966V476.566C784.442 479.181 785.834 481.598 788.092 482.908L827.707 505.886C830.626 507.579 834.279 505.47 834.279 502.091V442.597C834.279 439.464 832.604 436.57 829.89 435.012L790.536 412.427C787.823 410.87 784.442 412.832 784.442 415.966Z" fill="#306097"/>
<path d="M846.825 452.108V512.17C846.825 515.131 848.403 517.867 850.962 519.348L877.183 534.515C880.326 536.332 884.256 534.06 884.256 530.424V472.559C884.256 468.771 882.239 465.271 878.965 463.377L853.155 448.448C850.341 446.821 846.825 448.854 846.825 452.108Z" fill="#3C7FBE"/>
<path d="M735.959 423.444C725.666 417.552 717.244 422.36 717.244 434.126C717.244 445.893 725.666 460.456 735.959 466.489C746.253 472.521 754.674 467.714 754.674 455.807C754.674 443.899 746.252 429.336 735.959 423.444Z" fill="#3C7FBE"/>
<path d="M697.107 256.598L896.661 372.579V362.454C896.661 359.813 895.255 357.372 892.972 356.051L701.455 245.233C699.522 244.115 697.107 245.511 697.107 247.747V256.598V256.598Z" fill="#3C7FBE"/>
<path d="M705.805 251.39C703.998 250.356 702.52 251.2 702.52 253.265C702.52 255.33 703.998 257.887 705.805 258.946C707.612 260.006 709.09 259.162 709.09 257.071C709.09 254.981 707.611 252.424 705.805 251.39Z" fill="white"/>
<path d="M716.337 257.599C714.53 256.565 713.052 257.409 713.052 259.475C713.052 261.541 714.53 264.097 716.337 265.156C718.145 266.215 719.623 265.371 719.623 263.281C719.623 261.19 718.145 258.634 716.337 257.599Z" fill="#E7F6FD"/>
<path d="M726.702 263.28C724.895 262.246 723.417 263.089 723.417 265.155C723.417 267.221 724.895 269.777 726.702 270.836C728.509 271.896 729.987 271.052 729.987 268.961C729.987 266.871 728.509 264.315 726.702 263.28Z" fill="#CDE9F9"/>
<path d="M618.15 187.707L691.964 230.403C694.967 232.14 696.817 235.351 696.817 238.825V394.413C696.817 399.746 691.054 403.079 686.444 400.413L614.047 358.536C611.222 356.902 609.482 353.883 609.482 350.615V192.72C609.482 188.264 614.299 185.479 618.15 187.707Z" fill="url(#paint3_linear_29_7562)"/>
<path d="M605.961 189.997L679.774 232.692C682.778 234.429 684.628 237.64 684.628 241.114V396.703C684.628 402.036 678.865 405.369 674.255 402.702L601.858 360.826C599.033 359.192 597.293 356.172 597.293 352.904V195.01C597.293 190.553 602.109 187.768 605.961 189.997Z" fill="#222457"/>
<path d="M605.961 189.997L679.774 232.692C682.778 234.429 684.628 237.64 684.628 241.114V396.703C684.628 402.036 678.865 405.369 674.255 402.702L601.858 360.826C599.033 359.192 597.293 356.172 597.293 352.904V195.01C597.293 190.553 602.109 187.768 605.961 189.997Z" fill="url(#paint4_linear_29_7562)"/>
<path d="M603.302 201.884V204.249L613.22 209.98V207.615L603.302 201.884Z" fill="#CDE9F9"/>
<path d="M603.301 206.204V208.57L613.219 214.3V211.935L603.301 206.204Z" fill="#CDE9F9"/>
<path d="M603.301 210.525V212.891L613.219 218.622V216.257L603.301 210.525Z" fill="#CDE9F9"/>
<path d="M678.152 260.462V258.097L616.941 222.726V225.092L678.152 260.462Z" fill="#CDE9F9"/>
<path d="M603.301 214.846V217.211L613.219 222.942V220.576L603.301 214.846Z" fill="#CDE9F9"/>
<path d="M603.301 219.167V221.532L613.219 227.263V224.898L603.301 219.167Z" fill="#CDE9F9"/>
<path d="M678.152 264.782V262.417L616.941 227.048V229.413L678.152 264.782Z" fill="#CDE9F9"/>
<path d="M603.301 232.129V234.493L613.219 240.224V237.859L603.301 232.129Z" fill="#CDE9F9"/>
<path d="M603.301 236.449V238.815L613.219 244.546V242.18L603.301 236.449Z" fill="#CDE9F9"/>
<path d="M603.301 253.732V256.097L613.219 261.828V259.463L603.301 253.732Z" fill="#CDE9F9"/>
<path d="M603.301 258.053V260.418L613.219 266.149V263.783L603.301 258.053Z" fill="#CDE9F9"/>
<path d="M655.557 288.248L616.941 265.934V268.299L655.557 290.613V288.248Z" fill="#CDE9F9"/>
<path d="M657.594 289.423V291.789L678.154 303.669V301.304L657.594 289.423Z" fill="#CDE9F9"/>
<path d="M636.343 272.824L616.941 261.614V263.979L636.343 275.19V272.824Z" fill="#CDE9F9"/>
<path d="M638.379 274.001V276.366L678.154 299.348V296.983L638.379 274.001Z" fill="#CDE9F9"/>
<path d="M672.919 280.998V283.363L678.152 286.386V284.022L672.919 280.998Z" fill="#CDE9F9"/>
<path d="M644.445 260.223L616.941 244.331V246.696L644.445 262.589V260.223Z" fill="#CDE9F9"/>
<path d="M633.175 219.145L616.941 209.765V212.131L633.175 221.511V219.145Z" fill="#CDE9F9"/>
<path d="M659.787 234.522L635.213 220.322V222.687L659.787 236.888V234.522Z" fill="#CDE9F9"/>
<path d="M645.462 230.567L628.16 220.569V222.934L645.462 232.932V230.567Z" fill="#CDE9F9"/>
<path d="M663.616 241.056L647.497 231.742V234.108L663.616 243.422V241.056Z" fill="#CDE9F9"/>
<path d="M665.655 242.233V244.598L678.154 251.821V249.456L665.655 242.233Z" fill="#CDE9F9"/>
<path d="M620.137 220.254V222.619L633.173 230.152V227.786L620.137 220.254Z" fill="#CDE9F9"/>
<path d="M673.054 250.829L635.213 228.963V231.329L673.054 253.195V250.829Z" fill="#CDE9F9"/>
<path d="M651.386 251.273L626.656 236.982V239.347L651.386 253.638V251.273Z" fill="#CDE9F9"/>
<path d="M673.052 263.792L653.421 252.448V254.814L673.052 266.157V263.792Z" fill="#CDE9F9"/>
<path d="M670.886 275.501L646.481 261.399V263.764L670.886 277.866V275.501Z" fill="#CDE9F9"/>
<path d="M657.592 272.141V274.507L670.884 282.187V279.822L657.592 272.141Z" fill="#CDE9F9"/>
<path d="M621.727 251.417L616.941 248.651V251.016L621.727 253.782V251.417Z" fill="#CDE9F9"/>
<path d="M630.694 256.598V258.963L655.559 273.33V270.965L630.694 256.598Z" fill="#CDE9F9"/>
<path d="M628.656 255.421L623.761 252.593V254.958L628.656 257.787V255.421Z" fill="#CDE9F9"/>
<path d="M650.956 272.627L623.761 256.914V259.279L650.956 274.993V272.627Z" fill="#CDE9F9"/>
<path d="M603.302 270.445V272.81L613.22 278.541V276.176L603.302 270.445Z" fill="#BD8AAE"/>
<path d="M603.301 274.767V277.132L613.219 282.863V280.498L603.301 274.767Z" fill="#BD8AAE"/>
<path d="M603.301 279.086V281.452L613.219 287.183V284.818L603.301 279.086Z" fill="#BD8AAE"/>
<path d="M678.152 329.023V326.658L616.941 291.289V293.654L678.152 329.023Z" fill="#BD8AAE"/>
<path d="M603.301 283.408V285.773L613.219 291.504V289.139L603.301 283.408Z" fill="#BD8AAE"/>
<path d="M603.301 287.728V290.093L613.219 295.824V293.459L603.301 287.728Z" fill="#BD8AAE"/>
<path d="M678.152 333.345V330.98L616.941 295.609V297.974L678.152 333.345Z" fill="#BD8AAE"/>
<path d="M603.301 300.691V303.056L613.219 308.787V306.422L603.301 300.691Z" fill="#BD8AAE"/>
<path d="M603.301 305.011V307.376L613.219 313.107V310.742L603.301 305.011Z" fill="#BD8AAE"/>
<path d="M603.301 322.294V324.659L613.219 330.39V328.024L603.301 322.294Z" fill="#BD8AAE"/>
<path d="M603.301 326.615V328.98L613.219 334.711V332.346L603.301 326.615Z" fill="#BD8AAE"/>
<path d="M655.557 356.81L616.941 334.496V336.862L655.557 359.175V356.81Z" fill="#BD8AAE"/>
<path d="M657.594 357.986V360.351L678.154 372.23V369.866L657.594 357.986Z" fill="#BD8AAE"/>
<path d="M636.343 341.386L616.941 330.175V332.54L636.343 343.751V341.386Z" fill="#BD8AAE"/>
<path d="M638.379 342.562V344.927L678.154 367.91V365.544L638.379 342.562Z" fill="#BD8AAE"/>
<path d="M672.919 349.559V351.924L678.152 354.947V352.583L672.919 349.559Z" fill="#BD8AAE"/>
<path d="M644.445 328.785L616.941 312.892V315.257L644.445 331.151V328.785Z" fill="#BD8AAE"/>
<path d="M633.175 287.708L616.941 278.327V280.692L633.175 290.073V287.708Z" fill="#BD8AAE"/>
<path d="M659.787 303.084L635.213 288.883V291.249L659.787 305.449V303.084Z" fill="#BD8AAE"/>
<path d="M645.462 299.128L628.16 289.13V291.495L645.462 301.493V299.128Z" fill="#BD8AAE"/>
<path d="M663.616 309.618L647.497 300.304V302.67L663.616 311.983V309.618Z" fill="#BD8AAE"/>
<path d="M665.655 310.794V313.16L678.154 320.382V318.017L665.655 310.794Z" fill="#BD8AAE"/>
<path d="M620.137 288.816V291.181L633.173 298.714V296.348L620.137 288.816Z" fill="#BD8AAE"/>
<path d="M673.054 319.391L635.213 297.525V299.89L673.054 321.756V319.391Z" fill="#BD8AAE"/>
<path d="M651.386 319.834L626.656 305.544V307.909L651.386 322.199V319.834Z" fill="#BD8AAE"/>
<path d="M673.052 332.353L653.421 321.01V323.375L673.052 334.718V332.353Z" fill="#BD8AAE"/>
<path d="M670.886 344.062L646.481 329.961V332.327L670.886 346.428V344.062Z" fill="#BD8AAE"/>
<path d="M657.592 340.703V343.068L670.884 350.748V348.383L657.592 340.703Z" fill="#BD8AAE"/>
<path d="M621.727 319.979L616.941 317.213V319.579L621.727 322.344V319.979Z" fill="#BD8AAE"/>
<path d="M630.694 325.159V327.525L655.559 341.892V339.527L630.694 325.159Z" fill="#BD8AAE"/>
<path d="M628.656 323.983L623.761 321.155V323.52L628.656 326.348V323.983Z" fill="#BD8AAE"/>
<path d="M650.956 341.19L623.761 325.475V327.841L650.956 343.555V341.19Z" fill="#BD8AAE"/>
<path d="M620.233 345.908C619.978 346.169 619.856 346.676 619.854 347.422L619.845 350.737V350.822C619.843 351.452 619.641 351.79 619.24 351.835C618.838 351.88 618.263 351.686 617.522 351.257L617.515 353.565C618.256 353.994 618.831 354.464 619.231 354.98C619.631 355.497 619.83 356.097 619.828 356.782L619.819 360.057C619.817 360.803 619.936 361.449 620.188 362.011C620.434 362.569 620.827 363.097 621.368 363.602C621.909 364.108 622.656 364.633 623.605 365.181L623.611 362.997C622.996 362.619 622.582 362.248 622.363 361.883C622.143 361.51 622.038 361.078 622.039 360.579L622.048 357.441V357.318C622.052 356.065 621.366 354.928 619.977 353.887V353.764C621.347 354.326 622.038 353.939 622.062 352.613L622.07 349.475C622.072 348.968 622.186 348.664 622.408 348.553C622.629 348.442 623.043 348.559 623.651 348.888L623.657 346.703C622.723 346.162 621.98 345.826 621.432 345.701C620.876 345.572 620.481 345.643 620.233 345.908Z" fill="#CDE9F9"/>
<path d="M633.161 359.885C632.774 359.384 632.575 358.815 632.577 358.184V358.099L632.586 354.785C632.589 353.716 632.31 352.8 631.737 352.03C631.171 351.263 630.189 350.48 628.786 349.668L628.78 351.852C629.388 352.227 629.809 352.593 630.028 352.958C630.248 353.317 630.354 353.755 630.353 354.263L630.344 357.4C630.367 358.753 631.066 359.944 632.434 360.966V361.089C631.752 360.818 631.23 360.762 630.875 360.935C630.514 361.11 630.331 361.506 630.33 362.137V362.228L630.321 365.366C630.319 365.873 630.211 366.188 629.99 366.299C629.769 366.402 629.348 366.29 628.74 365.961L628.734 368.145C630.13 368.952 631.112 369.297 631.688 369.191C632.257 369.081 632.547 368.494 632.55 367.417L632.559 364.142C632.561 363.458 632.763 363.089 633.151 363.028C633.546 362.972 634.114 363.162 634.869 363.598L634.876 361.291C634.122 360.857 633.554 360.391 633.161 359.885Z" fill="#CDE9F9"/>
<path d="M641.467 357.864C641.212 358.125 641.09 358.632 641.087 359.377L641.078 362.692V362.777C641.077 363.407 640.875 363.745 640.473 363.789C640.072 363.834 639.497 363.64 638.755 363.212L638.749 365.519C639.491 365.948 640.065 366.419 640.465 366.935C640.865 367.451 641.064 368.051 641.062 368.736L641.053 372.011C641.051 372.757 641.17 373.404 641.422 373.965C641.668 374.524 642.061 375.051 642.602 375.557C643.142 376.062 643.89 376.587 644.839 377.136L644.845 374.951C644.23 374.573 643.816 374.203 643.597 373.837C643.378 373.464 643.272 373.033 643.273 372.533L643.282 369.395V369.272C643.285 368.019 642.599 366.883 641.21 365.841L641.211 365.718C642.581 366.28 643.271 365.893 643.295 364.567L643.304 361.429C643.306 360.922 643.42 360.618 643.641 360.508C643.862 360.396 644.276 360.513 644.884 360.842L644.891 358.658C643.955 358.117 643.214 357.78 642.665 357.655C642.11 357.527 641.715 357.599 641.467 357.864Z" fill="#CDE9F9"/>
<path d="M654.392 371.84C654.005 371.339 653.806 370.77 653.808 370.139V370.055L653.817 366.74C653.82 365.671 653.542 364.756 652.968 363.985C652.401 363.218 651.42 362.435 650.018 361.623L650.012 363.808C650.619 364.182 651.04 364.549 651.259 364.914C651.48 365.273 651.585 365.711 651.583 366.219L651.575 369.356C651.598 370.709 652.297 371.899 653.665 372.922V373.045C652.983 372.774 652.462 372.718 652.107 372.891C651.745 373.066 651.563 373.461 651.561 374.093V374.185L651.553 377.323C651.551 377.83 651.443 378.145 651.222 378.256C651.001 378.359 650.58 378.247 649.972 377.918L649.966 380.101C651.362 380.909 652.344 381.254 652.92 381.148C653.489 381.038 653.779 380.45 653.782 379.374L653.791 376.098C653.793 375.415 653.994 375.046 654.383 374.985C654.778 374.928 655.346 375.118 656.101 375.555L656.107 373.248C655.353 372.813 654.785 372.346 654.392 371.84Z" fill="#CDE9F9"/>
<path d="M604.733 194.649C604.733 195.577 605.397 196.725 606.208 197.201C607.02 197.676 607.684 197.298 607.684 196.358C607.684 195.419 607.02 194.271 606.208 193.807C605.396 193.343 604.733 193.721 604.733 194.649Z" fill="#E7F6FD"/>
<path d="M609.465 197.438C609.465 198.366 610.129 199.514 610.94 199.99C611.752 200.465 612.416 200.087 612.416 199.147C612.416 198.208 611.752 197.06 610.94 196.596C610.128 196.132 609.465 196.511 609.465 197.438Z" fill="#E7F6FD"/>
<path d="M615.593 199.148C614.781 198.683 614.117 199.062 614.117 199.99C614.117 200.918 614.781 202.066 615.593 202.542C616.404 203.017 617.068 202.639 617.068 201.699C617.068 200.76 616.404 199.613 615.593 199.148Z" fill="#E7F6FD"/>
<path d="M438.364 616.819C399.528 594.355 399.528 557.471 438.364 534.855C477.2 512.239 540.75 512.239 579.586 534.855C618.422 557.471 618.422 594.355 579.586 616.819C540.75 639.282 477.2 639.282 438.364 616.819Z" fill="#2A2F6D"/>
<path d="M458.784 466.984C468.629 466.984 476.61 454.52 476.61 439.145C476.61 423.769 468.629 411.305 458.784 411.305C448.939 411.305 440.958 423.769 440.958 439.145C440.958 454.52 448.939 466.984 458.784 466.984Z" fill="url(#paint5_linear_29_7562)"/>
<path d="M557.646 402.875C554.921 406.584 551.739 410.169 548.019 413.544C515.311 443.214 480.6 443.107 463.959 440.797C458.645 440.059 455.085 434.794 456.486 429.765L458.511 422.495L456.248 430.619L456.464 429.831C457.556 425.838 461.445 423.351 465.658 423.945C478.861 425.805 508.081 426.143 536.064 400.758C554.243 384.266 556.229 360.513 555.928 348.579C555.82 344.301 558.88 340.72 563.151 340.209C568.322 339.589 573.04 343.65 573.176 348.829C573.505 361.351 571.723 383.715 557.646 402.875Z" fill="#CDE9F9"/>
<path d="M574.044 301.571C574.044 301.571 554.889 310.972 551.737 327.741C548.585 344.51 559.738 361.534 574.044 360.517C588.35 359.501 601.929 347.051 601.929 347.051L593.927 328.758C593.927 328.758 584.904 338.851 576.565 339.267C568.225 339.683 562.569 322.405 580.43 314.529L574.044 301.571Z" fill="url(#paint6_linear_29_7562)"/>
<path d="M606.086 547.386V510.889L576.301 514.473C562.993 508.792 546.654 506.015 529.351 506.015V507.471C532.11 507.471 534.832 507.546 537.512 507.69C527.11 507.507 515.018 508.179 501.252 509.81C510.534 508.278 519.981 507.471 529.345 507.471L529.351 506.015C529.349 506.015 529.347 506.015 529.345 506.015C501.046 506.016 470.191 513.433 445.916 527.669C444.195 528.679 442.554 529.713 440.95 530.76L408.958 534.609V578.072C408.958 578.072 408.989 578.084 409.039 578.102C409.588 589.906 416.613 600.862 430.505 609.01C444.988 617.503 464.667 621.625 485.771 621.625C514.069 621.625 544.925 614.209 569.2 599.972C593.561 585.684 606.183 567.518 606.096 550.874C606.226 548.659 606.086 547.386 606.086 547.386ZM465.599 618.791C461.179 618.168 456.927 617.338 452.879 616.308C457.243 617.338 461.481 618.148 465.599 618.791ZM452.396 616.191C452.23 616.148 452.064 616.104 451.899 616.061C452.068 616.102 452.225 616.149 452.396 616.191Z" fill="#2A2F6D"/>
<path d="M594.203 465.678L598.22 493.345L572.035 542.333" stroke="#C4CACB" stroke-width="5" stroke-miterlimit="10"/>
<path d="M586.25 477.079C586.25 477.079 587.435 469.873 592.262 469.45C592.262 469.45 593.443 469.227 594.088 468.151C594.732 467.076 595.094 468.954 594.377 470.596C593.658 472.238 593.658 472.238 593.658 472.238C593.658 472.238 597.416 468.916 596.987 467.835C596.557 466.753 600.637 468.259 600.208 470.733C599.778 473.206 602.599 474.561 601.511 478.831C600.423 483.101 598.22 487.184 594.007 487.777C589.794 488.371 586.25 477.079 586.25 477.079Z" fill="#FDE0D9"/>
<path d="M508.225 397.492V382.511C508.225 373.77 503.877 366.409 488.721 370.786C473.566 375.163 470.351 386.192 475.403 397.492C477.578 402.357 479.919 406.728 482.888 409.952V424.02L501.289 422.705L500.445 414.854C511.495 411.741 508.225 397.492 508.225 397.492Z" fill="#FDE0D9"/>
<path d="M458.772 465.678L451.615 455.281C451.615 455.281 456.695 427.399 464.927 423.302C479.937 415.833 518.961 412.917 538.379 427.713C557.798 442.509 553.791 486.742 562.666 485.137C571.541 483.532 587.074 474.816 587.074 474.816C587.074 474.816 595.596 474.349 594.001 487.777C594.001 487.777 569.55 520.662 551.307 522.596C533.064 524.53 515.096 497.623 515.096 497.623L458.772 465.678Z" fill="#BD8AAE"/>
<path d="M580.595 541.654C580.595 541.654 558.425 452.678 544.315 449.606C532.261 446.982 454.276 444.21 431.812 443.458C427.358 443.309 423.153 445.599 420.961 449.488C418.616 453.649 416.598 459.723 418.128 467.184C421.128 481.811 441.905 523.216 430.228 554.569C430.227 554.568 480.066 583.397 580.595 541.654Z" fill="#222457"/>
<path d="M594.811 472.765C597.725 472.765 600.087 470.399 600.087 467.48C600.087 464.561 597.725 462.194 594.811 462.194C591.897 462.194 589.535 464.561 589.535 467.48C589.535 470.399 591.897 472.765 594.811 472.765Z" fill="#2A2F6D"/>
<path d="M502.079 391.144C502.079 391.144 501.327 388.993 499.502 388.67C497.677 388.347 497.892 397.382 499.502 399.317C501.113 401.254 502.079 400.285 502.079 400.285C502.079 400.285 501.971 405.555 498.75 407.921C495.529 410.287 498.467 413.837 490.932 413.837C483.397 413.837 473.735 410.825 470.406 407.384C467.078 403.943 465.119 390.605 473.185 383.507C473.185 383.507 470.299 367.804 489.195 365.653C508.09 363.502 510.453 364.578 512.6 361.996C514.747 359.415 514.533 357.909 514.533 357.909C514.533 357.909 516.041 365.653 513.784 367.374C513.784 367.374 515.188 368.665 516.041 365.653C516.041 365.653 517.074 372.967 513.763 378.129C510.453 383.292 503.367 387.81 502.079 391.144Z" fill="#2A2F6D"/>
<path d="M503.138 592.183C497.997 592.183 492.476 592.07 485.761 591.826C461.381 590.942 449.61 587.93 430.998 577.812C417.66 570.562 410.242 559.512 410.113 546.698H410.048V281.235L410.111 281.235C410.067 272.812 413.389 262.505 419.224 252.955C423.895 245.31 432.41 234.467 446.441 226.232C470.66 212.018 501.906 210.827 529.292 210.825C553.863 210.825 574.103 220.55 583.98 226.346C589.648 229.672 594.232 233.523 597.651 237.79L596.51 238.673C597.531 240.05 598.435 241.348 599.276 242.643L600.495 241.882C602.646 245.499 604.034 249.361 604.615 253.414L604.668 253.78L604.652 253.823L604.684 254.086C604.884 255.739 604.953 257.405 604.889 259.037L604.877 259.346L604.953 259.489V543.186L604.894 543.186C604.508 559.199 593.015 571.193 568.723 580.93C549.049 588.818 529.434 592.183 503.138 592.183Z" fill="url(#paint7_linear_29_7562)"/>
<path d="M529.298 211.971C553.598 211.971 573.628 221.597 583.405 227.335C588.936 230.581 593.405 234.329 596.734 238.476L595.595 239.357C596.602 240.716 597.493 241.996 598.32 243.269L599.537 242.51C601.6 245.987 602.929 249.694 603.486 253.579L603.499 253.67L603.488 253.7L603.552 254.226C603.744 255.818 603.811 257.422 603.749 258.994L603.725 259.602L603.812 259.769V541.323L603.749 541.324L603.752 543.187C603.366 558.673 592.1 570.329 568.3 579.868C548.768 587.697 529.281 591.038 503.139 591.038C498.013 591.038 492.505 590.925 485.803 590.681C461.634 589.804 449.971 586.822 431.545 576.805C418.587 569.762 411.382 559.065 411.257 546.686H411.193V281.23L411.255 281.229C411.213 273.014 414.473 262.926 420.2 253.553C424.803 246.02 433.193 235.335 447.02 227.22C470.992 213.151 502.057 211.972 529.293 211.97H529.298V211.971ZM529.298 209.682C529.297 209.682 529.296 209.682 529.294 209.682C500.996 209.683 470.141 210.998 445.866 225.245C421.507 239.541 408.885 264.586 408.97 281.241L408.908 274.379V551.847L408.972 546.71C409.096 558.97 415.834 570.871 430.455 578.819C449.41 589.122 461.656 592.097 485.722 592.97C491.72 593.187 497.507 593.328 503.141 593.328C526.19 593.328 546.727 590.983 569.151 581.994C594.729 571.742 605.657 559.158 606.04 543.214L606.037 541.32C606.054 541.957 606.055 542.588 606.04 543.214L606.1 577.242V259.235C606.072 259.184 606.061 259.134 606.035 259.083C606.103 257.355 606.028 255.643 605.823 253.95C605.97 253.524 606.1 253.253 606.1 253.253H605.75C604.224 242.606 597.257 232.81 584.562 225.359C570.079 216.86 550.4 209.682 529.298 209.682ZM600.237 242.02C599.435 240.784 598.514 239.454 597.431 237.992C598.478 239.297 599.416 240.64 600.237 242.02Z" fill="#FDFEFE"/>
<g opacity="0.5">
<path opacity="0.5" d="M425.5 565.149V287.472C425.5 287.472 442.881 259.373 472.757 262.384C502.633 265.394 507.455 282.455 507.455 282.455V591.541C507.455 591.541 508.611 578.803 503.756 581.411C489.051 589.312 456.98 601.059 437.224 567.472C434.41 562.688 427.728 571.914 425.5 565.149Z" fill="url(#paint8_linear_29_7562)"/>
</g>
<path d="M551.053 494.751C560.898 494.751 568.879 482.287 568.879 466.911C568.879 451.536 560.898 439.072 551.053 439.072C541.208 439.072 533.228 451.536 533.228 466.911C533.228 482.287 541.208 494.751 551.053 494.751Z" fill="url(#paint9_linear_29_7562)"/>
<path d="M631.121 524.384C626.523 524.384 621.755 523.942 616.836 522.941C573.596 514.14 553.106 486.07 545.099 471.275C542.542 466.55 544.665 460.556 549.538 458.705L556.582 456.03L548.71 459.02L549.471 458.727C553.329 457.241 557.635 458.904 559.654 462.656C565.984 474.411 583.034 498.185 620.029 505.716C644.063 510.607 664.337 498.13 673.752 490.812C677.127 488.189 681.82 488.535 684.763 491.678C688.327 495.482 687.859 501.697 683.776 504.876C673.905 512.566 654.869 524.384 631.121 524.384Z" fill="#CDE9F9"/>
<path d="M689.881 459.197C689.881 459.197 670.725 468.598 667.573 485.367C664.421 502.136 675.575 519.16 689.881 518.143C704.186 517.127 717.765 504.677 717.765 504.677L709.763 486.384C709.763 486.384 700.74 496.477 692.401 496.893C684.062 497.309 678.405 480.031 696.266 472.155L689.881 459.197Z" fill="url(#paint10_linear_29_7562)"/>
<path d="M606.097 551.932H604.651V584.961H606.097V551.932Z" fill="#2A2F6D"/>
<path d="M693.057 565.842H604.806V660.146H693.057V565.842Z" fill="url(#paint11_linear_29_7562)"/>
<path d="M648.932 684.001C673.35 684.001 693.144 672.552 693.144 658.428C693.144 644.305 673.35 632.855 648.932 632.855C624.515 632.855 604.721 644.305 604.721 658.428C604.721 672.552 624.515 684.001 648.932 684.001Z" fill="#3C7FBE"/>
<path d="M648.932 592.25C673.35 592.25 693.144 580.801 693.144 566.677C693.144 552.554 673.35 541.104 648.932 541.104C624.515 541.104 604.721 552.554 604.721 566.677C604.721 580.801 624.515 592.25 648.932 592.25Z" fill="#17A1DB"/>
<path d="M642.75 541.452L642.738 539.109L642.731 541.277L642.744 543.619L642.75 541.452Z" fill="#2A2F6D"/>
<path d="M664.236 544.27L661.39 545.926L661.384 548.092L664.23 546.436L664.236 544.27Z" fill="#2A2F6D"/>
<path d="M631.133 545.926L628.27 544.27L628.264 546.437L631.127 548.092L631.133 545.926Z" fill="#2A2F6D"/>
<path d="M637.207 553.432C637.222 553.354 637.245 553.276 637.266 553.198C637.29 553.106 637.312 553.015 637.344 552.924C637.371 552.849 637.406 552.775 637.439 552.701C637.48 552.606 637.521 552.511 637.572 552.416C637.609 552.348 637.654 552.28 637.695 552.213C637.761 552.105 637.831 551.999 637.909 551.894C637.955 551.831 638.006 551.77 638.057 551.709C638.174 551.567 638.304 551.428 638.444 551.291C638.495 551.242 638.541 551.191 638.595 551.143C638.682 551.064 638.78 550.988 638.876 550.911C638.959 550.843 639.04 550.775 639.131 550.708C639.234 550.633 639.348 550.561 639.46 550.488C639.574 550.414 639.683 550.337 639.807 550.265C640.08 550.105 640.371 549.963 640.669 549.828C640.754 549.79 640.841 549.753 640.929 549.717C641.163 549.619 641.403 549.528 641.647 549.444C641.735 549.415 641.821 549.382 641.91 549.354C642.064 549.306 642.222 549.264 642.379 549.22C642.499 549.187 642.618 549.152 642.74 549.123C642.905 549.083 643.074 549.05 643.243 549.015C643.358 548.992 643.473 548.966 643.59 548.945C643.932 548.885 644.279 548.837 644.629 548.8C644.737 548.789 644.845 548.782 644.952 548.773C645.158 548.756 645.364 548.741 645.571 548.732C645.703 548.725 645.835 548.723 645.967 548.72C646.134 548.717 646.301 548.716 646.467 548.718C646.607 548.719 646.746 548.724 646.886 548.729C647.04 548.735 647.195 548.744 647.349 548.754C647.49 548.764 647.631 548.777 647.771 548.79C647.924 548.804 648.076 548.822 648.227 548.841C648.364 548.858 648.5 548.877 648.636 548.899C648.799 548.924 648.96 548.952 649.121 548.983C649.248 549.008 649.375 549.033 649.5 549.06C649.691 549.102 649.879 549.149 650.066 549.199C650.172 549.226 650.277 549.253 650.38 549.283C650.716 549.381 651.043 549.491 651.36 549.615C651.518 549.676 651.669 549.744 651.822 549.811C651.9 549.846 651.982 549.877 652.059 549.915C652.29 550.024 652.514 550.14 652.729 550.265C654.529 551.306 655.428 552.672 655.424 554.036L655.43 551.868C655.434 550.505 654.535 549.138 652.735 548.097C652.52 547.973 652.296 547.857 652.065 547.747C651.988 547.71 651.906 547.678 651.827 547.643C651.691 547.583 651.557 547.52 651.416 547.464C651.4 547.458 651.382 547.453 651.366 547.447C651.048 547.323 650.721 547.214 650.385 547.115C650.358 547.107 650.333 547.097 650.306 547.088C650.23 547.067 650.15 547.052 650.073 547.031C649.885 546.982 649.697 546.933 649.505 546.891C649.454 546.88 649.405 546.865 649.354 546.854C649.279 546.839 649.202 546.829 649.126 546.814C648.966 546.784 648.805 546.756 648.643 546.73C648.577 546.721 648.514 546.706 648.448 546.697C648.377 546.687 648.305 546.682 648.234 546.672C648.082 546.653 647.93 546.636 647.777 546.621C647.704 546.614 647.632 546.603 647.56 546.597C647.492 546.591 647.424 546.591 647.356 546.585C647.201 546.575 647.047 546.567 646.891 546.56C646.814 546.557 646.737 546.55 646.659 546.548C646.598 546.547 646.536 546.55 646.475 546.549C646.307 546.546 646.139 546.548 645.972 546.551C645.889 546.553 645.806 546.55 645.725 546.553C645.676 546.554 645.627 546.56 645.578 546.563C645.371 546.572 645.165 546.587 644.96 546.604C644.877 546.611 644.794 546.612 644.711 546.621C644.686 546.623 644.661 546.628 644.635 546.631C644.286 546.668 643.938 546.716 643.596 546.776C643.579 546.779 643.563 546.781 643.546 546.783C643.447 546.801 643.351 546.826 643.254 546.846C643.083 546.881 642.913 546.914 642.747 546.955C642.625 546.984 642.508 547.019 642.389 547.051C642.231 547.094 642.072 547.137 641.918 547.186C641.885 547.197 641.85 547.204 641.816 547.215C641.761 547.233 641.71 547.258 641.655 547.276C641.41 547.36 641.17 547.45 640.936 547.549C640.849 547.585 640.761 547.621 640.677 547.66C640.379 547.794 640.089 547.937 639.815 548.097C639.778 548.119 639.74 548.14 639.704 548.163C639.62 548.213 639.548 548.268 639.469 548.319C639.357 548.393 639.243 548.464 639.139 548.54C639.049 548.606 638.969 548.674 638.884 548.742C638.789 548.819 638.691 548.896 638.603 548.975C638.585 548.991 638.564 549.006 638.547 549.022C638.511 549.054 638.486 549.09 638.452 549.124C638.311 549.26 638.182 549.399 638.064 549.541C638.039 549.572 638.004 549.601 637.98 549.632C637.955 549.663 637.94 549.695 637.916 549.726C637.838 549.831 637.768 549.938 637.702 550.045C637.673 550.09 637.637 550.134 637.612 550.179C637.599 550.202 637.591 550.226 637.579 550.249C637.528 550.343 637.488 550.438 637.446 550.533C637.421 550.589 637.389 550.643 637.368 550.7C637.361 550.719 637.358 550.738 637.351 550.757C637.319 550.848 637.297 550.939 637.273 551.03C637.257 551.091 637.232 551.152 637.22 551.215C637.216 551.231 637.218 551.248 637.214 551.265C637.197 551.361 637.19 551.457 637.181 551.553C637.176 551.616 637.162 551.678 637.16 551.741C637.159 551.768 637.158 551.794 637.158 551.821L637.152 553.988C637.152 553.898 637.167 553.809 637.175 553.719C637.184 553.624 637.19 553.528 637.207 553.432Z" fill="#2A2F6D"/>
<path d="M664.215 553.866C664.173 553.997 664.122 554.126 664.07 554.256C664.035 554.345 663.998 554.433 663.959 554.521C663.923 554.603 663.885 554.687 663.845 554.769C663.802 554.857 663.757 554.944 663.71 555.031C663.667 555.111 663.623 555.19 663.577 555.27C663.518 555.371 663.455 555.471 663.391 555.572C663.344 555.645 663.297 555.719 663.247 555.793C663.177 555.896 663.101 555.997 663.024 556.099C662.974 556.166 662.925 556.234 662.872 556.3C662.723 556.488 662.566 556.674 662.397 556.857C662.374 556.882 662.349 556.906 662.325 556.931C662.176 557.09 662.018 557.247 661.854 557.402C661.724 557.524 661.594 557.646 661.456 557.765L661.45 559.932C661.563 559.834 661.674 559.735 661.782 559.635C661.806 559.613 661.825 559.591 661.848 559.569C662.012 559.415 662.169 559.258 662.317 559.1C662.341 559.074 662.368 559.05 662.391 559.024C662.561 558.841 662.717 558.655 662.867 558.468C662.879 558.452 662.894 558.436 662.906 558.42C662.947 558.368 662.981 558.317 663.02 558.265C663.095 558.163 663.171 558.062 663.242 557.959C663.292 557.886 663.339 557.812 663.386 557.738C663.45 557.638 663.514 557.537 663.572 557.437C663.591 557.404 663.615 557.371 663.633 557.338C663.66 557.292 663.681 557.243 663.706 557.197C663.753 557.111 663.798 557.024 663.84 556.937C663.881 556.853 663.919 556.77 663.955 556.687C663.994 556.599 664.032 556.512 664.067 556.424C664.082 556.385 664.101 556.346 664.116 556.306C664.15 556.215 664.182 556.124 664.212 556.033H668.248L668.255 553.866H664.215Z" fill="#2A2F6D"/>
<path d="M631.192 559.931L631.199 557.764C629.795 556.566 628.858 555.238 628.394 553.866H624.358L624.352 556.034H628.388C628.851 557.406 629.788 558.734 631.192 559.931Z" fill="#2A2F6D"/>
<path d="M656.545 560.623C656.061 560.814 655.562 560.987 655.055 561.147C654.776 561.235 654.488 561.31 654.202 561.389C653.935 561.463 653.672 561.543 653.4 561.609C653.109 561.68 652.811 561.737 652.515 561.798C652.24 561.855 651.968 561.918 651.69 561.967C651.079 562.076 650.461 562.167 649.836 562.238L649.83 564.405C650.455 564.336 651.072 564.243 651.683 564.135C651.713 564.13 651.744 564.127 651.775 564.121C652.025 564.076 652.268 564.015 652.515 563.963C652.809 563.902 653.104 563.846 653.393 563.776C653.667 563.71 653.932 563.629 654.201 563.554C654.485 563.475 654.771 563.401 655.049 563.314C655.082 563.303 655.117 563.295 655.15 563.285C655.623 563.133 656.086 562.968 656.539 562.789L659.403 564.446L664.314 561.587L664.32 559.42L659.409 562.279L656.545 560.623Z" fill="#2A2F6D"/>
<path d="M642.867 562.238C642.43 562.189 641.998 562.121 641.567 562.053C641.257 562.005 640.949 561.951 640.644 561.893C640.376 561.842 640.109 561.787 639.845 561.729C639.48 561.649 639.12 561.559 638.764 561.463C638.483 561.388 638.2 561.317 637.924 561.233C637.801 561.196 637.678 561.158 637.556 561.119C637.077 560.966 636.603 560.805 636.144 560.624C636.143 560.624 636.142 560.624 636.142 560.624L633.292 562.282L628.348 559.423L628.342 561.591L633.285 564.45L636.135 562.791C636.595 562.971 637.07 563.133 637.551 563.287C637.673 563.326 637.795 563.364 637.918 563.401C638.042 563.438 638.163 563.48 638.288 563.516C638.442 563.56 638.602 563.59 638.757 563.631C639.114 563.725 639.474 563.815 639.839 563.896C639.958 563.922 640.071 563.958 640.19 563.983C640.336 564.013 640.489 564.032 640.637 564.06C640.944 564.119 641.251 564.173 641.562 564.221C641.703 564.244 641.841 564.275 641.983 564.295C642.274 564.336 642.566 564.373 642.858 564.405L642.861 564.406L642.874 566.748H649.841L649.847 564.581H642.88L642.867 562.238Z" fill="#2A2F6D"/>
<path d="M659.405 562.28L656.541 560.624C654.481 561.434 652.196 561.974 649.833 562.238L649.846 564.58H642.879L642.866 562.238C640.499 561.973 638.208 561.434 636.139 560.624L633.29 562.282L628.346 559.423L631.196 557.765C629.791 556.566 628.855 555.238 628.391 553.867H624.355L624.332 549.824H628.368C628.817 548.452 629.742 547.127 631.129 545.926L628.265 544.269L633.177 541.41L636.041 543.067C638.106 542.258 640.387 541.717 642.75 541.452L642.737 539.109H649.703L649.716 541.452C652.082 541.717 654.369 542.258 656.443 543.067L659.288 541.41L664.232 544.27L661.387 545.926C662.787 547.127 663.727 548.453 664.191 549.825H668.227L668.25 553.868H664.214C663.765 555.24 662.844 556.568 661.454 557.765L664.318 559.421L659.405 562.28ZM639.852 555.596C643.432 557.667 649.212 557.664 652.769 555.594C656.325 553.523 656.31 550.17 652.731 548.099C649.152 546.029 643.367 546.029 639.811 548.099C636.253 550.169 636.272 553.526 639.852 555.596Z" fill="white"/>
<path d="M651.321 565.609L651.311 563.695L651.306 565.466L651.316 567.38L651.321 565.609Z" fill="#BD8AAE"/>
<path d="M668.87 567.911L666.545 569.264L666.54 571.035L668.865 569.682L668.87 567.911Z" fill="#BD8AAE"/>
<path d="M641.828 569.264L639.489 567.911L639.483 569.682L641.823 571.035L641.828 569.264Z" fill="#BD8AAE"/>
<path d="M646.79 575.397C646.803 575.333 646.822 575.27 646.838 575.206C646.858 575.131 646.876 575.056 646.902 574.982C646.924 574.921 646.953 574.861 646.979 574.8C647.013 574.722 647.047 574.644 647.088 574.567C647.119 574.511 647.155 574.456 647.189 574.4C647.243 574.313 647.3 574.226 647.364 574.14C647.402 574.089 647.443 574.039 647.484 573.989C647.58 573.873 647.686 573.759 647.801 573.648C647.842 573.608 647.88 573.566 647.924 573.527C647.996 573.462 648.076 573.4 648.153 573.337C648.222 573.281 648.288 573.225 648.361 573.172C648.446 573.11 648.539 573.051 648.63 572.992C648.724 572.931 648.813 572.869 648.914 572.81C649.137 572.68 649.375 572.563 649.618 572.453C649.687 572.421 649.758 572.392 649.829 572.362C650.02 572.282 650.216 572.208 650.417 572.139C650.488 572.115 650.559 572.088 650.632 572.065C650.757 572.025 650.886 571.99 651.015 571.955C651.112 571.928 651.21 571.899 651.309 571.876C651.444 571.843 651.582 571.815 651.719 571.787C651.814 571.768 651.908 571.747 652.003 571.73C652.282 571.68 652.566 571.641 652.852 571.612C652.939 571.603 653.028 571.597 653.116 571.59C653.284 571.575 653.452 571.563 653.621 571.556C653.728 571.551 653.837 571.549 653.945 571.547C654.081 571.545 654.218 571.543 654.354 571.545C654.468 571.547 654.582 571.55 654.696 571.554C654.822 571.56 654.949 571.566 655.075 571.574C655.19 571.582 655.305 571.592 655.419 571.603C655.544 571.616 655.668 571.629 655.792 571.645C655.903 571.66 656.015 571.675 656.125 571.693C656.259 571.713 656.39 571.737 656.521 571.762C656.624 571.782 656.728 571.803 656.83 571.825C656.986 571.859 657.14 571.898 657.293 571.938C657.378 571.961 657.465 571.983 657.549 572.007C657.823 572.087 658.091 572.177 658.35 572.278C658.479 572.328 658.603 572.383 658.727 572.438C658.791 572.467 658.858 572.492 658.92 572.523C659.109 572.612 659.292 572.708 659.468 572.809C660.939 573.659 661.673 574.776 661.669 575.89L661.674 574.12C661.677 573.005 660.943 571.889 659.473 571.039C659.297 570.937 659.113 570.842 658.925 570.752C658.862 570.723 658.795 570.697 658.731 570.668C658.619 570.618 658.51 570.567 658.395 570.521C658.383 570.516 658.368 570.513 658.354 570.507C658.095 570.406 657.827 570.317 657.553 570.236C657.531 570.23 657.511 570.221 657.489 570.215C657.426 570.197 657.362 570.185 657.298 570.168C657.145 570.127 656.991 570.088 656.834 570.054C656.793 570.045 656.753 570.032 656.711 570.023C656.65 570.011 656.587 570.003 656.525 569.991C656.394 569.965 656.263 569.943 656.13 569.922C656.076 569.914 656.025 569.902 655.971 569.894C655.913 569.886 655.855 569.882 655.797 569.875C655.673 569.859 655.549 569.845 655.424 569.833C655.364 569.827 655.305 569.817 655.246 569.813C655.19 569.808 655.135 569.807 655.079 569.804C654.953 569.795 654.826 569.788 654.7 569.783C654.637 569.781 654.574 569.775 654.511 569.773C654.461 569.772 654.41 569.775 654.36 569.774C654.223 569.772 654.086 569.773 653.949 569.775C653.882 569.777 653.814 569.774 653.747 569.776C653.707 569.778 653.667 569.782 653.627 569.784C653.458 569.791 653.29 569.804 653.121 569.817C653.054 569.823 652.986 569.824 652.919 569.831C652.897 569.833 652.877 569.838 652.857 569.84C652.571 569.87 652.288 569.909 652.008 569.959C651.994 569.961 651.981 569.962 651.967 569.965C651.886 569.979 651.809 570 651.729 570.016C651.589 570.044 651.451 570.072 651.313 570.105C651.214 570.13 651.119 570.157 651.022 570.184C650.892 570.219 650.763 570.254 650.636 570.294C650.609 570.302 650.581 570.309 650.554 570.317C650.508 570.332 650.467 570.352 650.422 570.368C650.222 570.436 650.026 570.51 649.835 570.591C649.763 570.62 649.692 570.65 649.622 570.681C649.379 570.791 649.141 570.908 648.918 571.038C648.887 571.055 648.857 571.074 648.827 571.092C648.758 571.133 648.7 571.177 648.635 571.22C648.543 571.28 648.45 571.338 648.366 571.4C648.292 571.454 648.226 571.509 648.158 571.565C648.079 571.628 647.999 571.69 647.929 571.755C647.914 571.768 647.897 571.78 647.882 571.793C647.853 571.82 647.833 571.85 647.805 571.877C647.69 571.988 647.585 572.102 647.489 572.218C647.468 572.243 647.44 572.267 647.42 572.293C647.4 572.318 647.387 572.344 647.369 572.369C647.305 572.455 647.247 572.542 647.193 572.63C647.17 572.666 647.141 572.702 647.119 572.739C647.109 572.757 647.103 572.776 647.093 572.795C647.052 572.873 647.017 572.95 646.984 573.028C646.964 573.074 646.937 573.118 646.921 573.164C646.915 573.179 646.913 573.195 646.907 573.211C646.881 573.285 646.863 573.359 646.843 573.434C646.83 573.485 646.809 573.534 646.799 573.585C646.796 573.598 646.797 573.612 646.795 573.626C646.78 573.704 646.775 573.783 646.768 573.861C646.764 573.912 646.752 573.962 646.751 574.014C646.75 574.036 646.75 574.058 646.75 574.079L646.745 575.85C646.745 575.777 646.757 575.703 646.763 575.63C646.771 575.554 646.777 575.475 646.79 575.397Z" fill="#BD8AAE"/>
<path d="M668.854 575.752C668.819 575.858 668.778 575.965 668.735 576.071C668.707 576.143 668.676 576.215 668.644 576.287C668.615 576.355 668.583 576.422 668.551 576.49C668.515 576.561 668.478 576.632 668.44 576.703C668.405 576.769 668.369 576.834 668.332 576.899C668.284 576.981 668.232 577.064 668.18 577.145C668.141 577.206 668.103 577.266 668.061 577.325C668.004 577.409 667.942 577.493 667.879 577.576C667.838 577.631 667.798 577.686 667.754 577.741C667.633 577.894 667.504 578.046 667.366 578.195C667.348 578.216 667.326 578.235 667.307 578.255C667.185 578.385 667.057 578.514 666.922 578.64C666.817 578.74 666.71 578.839 666.597 578.937L666.592 580.707C666.685 580.627 666.775 580.546 666.863 580.465C666.883 580.448 666.899 580.429 666.917 580.411C667.051 580.284 667.179 580.157 667.3 580.028C667.319 580.007 667.341 579.987 667.361 579.966C667.498 579.816 667.627 579.665 667.749 579.511C667.759 579.498 667.771 579.486 667.782 579.473C667.815 579.431 667.843 579.388 667.874 579.346C667.936 579.263 667.997 579.18 668.055 579.096C668.096 579.037 668.135 578.976 668.173 578.916C668.226 578.834 668.278 578.752 668.326 578.669C668.342 578.643 668.36 578.616 668.375 578.588C668.397 578.55 668.414 578.511 668.435 578.473C668.473 578.402 668.509 578.332 668.544 578.26C668.577 578.192 668.608 578.124 668.639 578.057C668.671 577.985 668.701 577.913 668.73 577.841C668.743 577.809 668.758 577.778 668.77 577.746C668.797 577.672 668.824 577.597 668.848 577.522H672.147L672.152 575.752H668.854V575.752Z" fill="#BD8AAE"/>
<path d="M641.877 580.707L641.881 578.937C640.734 577.958 639.969 576.873 639.59 575.752H636.292L636.287 577.522H639.585C639.964 578.643 640.729 579.729 641.877 580.707Z" fill="#BD8AAE"/>
<path d="M662.588 581.272C662.193 581.428 661.785 581.569 661.371 581.7C661.143 581.772 660.907 581.833 660.674 581.897C660.456 581.958 660.241 582.023 660.019 582.078C659.781 582.136 659.538 582.181 659.296 582.232C659.072 582.278 658.85 582.33 658.623 582.37C658.124 582.458 657.619 582.533 657.108 582.59L657.103 584.361C657.613 584.304 658.118 584.229 658.617 584.14C658.641 584.136 658.667 584.134 658.691 584.13C658.895 584.093 659.094 584.043 659.296 584.001C659.535 583.95 659.777 583.905 660.013 583.847C660.237 583.793 660.453 583.727 660.674 583.666C660.905 583.602 661.139 583.541 661.366 583.47C661.393 583.461 661.422 583.455 661.448 583.446C661.835 583.322 662.213 583.186 662.584 583.041L664.923 584.395L668.936 582.059L668.94 580.289L664.928 582.625L662.588 581.272Z" fill="#BD8AAE"/>
<path d="M651.416 582.591C651.058 582.552 650.705 582.496 650.353 582.44C650.1 582.4 649.848 582.357 649.598 582.309C649.379 582.267 649.162 582.223 648.946 582.175C648.648 582.109 648.354 582.035 648.063 581.958C647.833 581.897 647.602 581.837 647.377 581.769C647.276 581.739 647.176 581.708 647.077 581.676C646.685 581.551 646.298 581.419 645.923 581.272L645.92 581.272L643.593 582.626L639.554 580.29L639.549 582.061L643.587 584.397L645.915 583.042C646.291 583.189 646.679 583.321 647.072 583.447C647.172 583.479 647.271 583.509 647.372 583.54C647.473 583.57 647.571 583.605 647.673 583.634C647.799 583.67 647.931 583.694 648.057 583.728C648.349 583.805 648.643 583.879 648.941 583.944C649.038 583.966 649.131 583.995 649.228 584.015C649.348 584.039 649.472 584.055 649.593 584.078C649.844 584.126 650.095 584.17 650.349 584.209C650.464 584.228 650.577 584.253 650.692 584.269C650.93 584.302 651.169 584.333 651.408 584.36H651.41L651.421 586.273H657.113L657.118 584.502H651.426L651.416 582.591Z" fill="#BD8AAE"/>
<path d="M664.93 582.626L662.59 581.272C660.907 581.935 659.04 582.375 657.11 582.591L657.12 584.505H651.429L651.418 582.591C649.485 582.375 647.613 581.935 645.922 581.272L643.594 582.627L639.555 580.291L641.883 578.936C640.735 577.958 639.97 576.873 639.592 575.751H636.294L636.275 572.448H639.573C639.939 571.327 640.696 570.245 641.828 569.263L639.489 567.91L643.502 565.574L645.841 566.927C647.528 566.267 649.391 565.824 651.322 565.608L651.311 563.695H657.003L657.014 565.608C658.946 565.824 660.815 566.267 662.51 566.927L664.834 565.574L668.873 567.91L666.548 569.263C667.692 570.244 668.46 571.327 668.84 572.448H672.138L672.156 575.751H668.858C668.492 576.873 667.739 577.957 666.603 578.936L668.942 580.289L664.93 582.626ZM648.956 577.165C651.88 578.856 656.602 578.855 659.508 577.163C662.414 575.471 662.401 572.731 659.477 571.039C656.552 569.348 651.826 569.348 648.921 571.039C646.016 572.731 646.031 575.474 648.956 577.165Z" fill="white"/>
<path d="M850.489 566.26L781.044 526.115C778.92 524.888 776.483 524.942 774.093 526.392L774.091 526.39L758.842 535.21L765.932 544.84L768.573 547.873V616.797C768.573 620.9 770.758 624.692 774.305 626.747L826.28 656.85L826.812 659.745L837.418 674.634L853.73 665.027C853.759 665.011 853.786 664.996 853.813 664.979L853.922 664.916V664.907C855.378 663.997 856.408 662.396 856.408 660.431L856.41 576.527C856.411 572.291 854.153 568.375 850.489 566.26Z" fill="url(#paint12_linear_29_7562)"/>
<path d="M834.257 575.819L763.993 535.203C760.564 533.223 756.281 535.703 756.281 539.668V623.925C756.281 628.027 758.465 631.82 762.012 633.874L832.267 674.565C835.782 676.6 840.179 674.06 840.179 669.992L840.18 586.087C840.18 581.849 837.921 577.935 834.257 575.819Z" fill="url(#paint13_linear_29_7562)"/>
<path d="M837.525 674.573L837.421 674.635L837.412 674.622C837.448 674.602 837.49 674.594 837.525 674.573Z" fill="url(#paint14_linear_29_7562)"/>
<path d="M840.181 669.991L840.182 586.086C840.182 584.673 839.85 583.331 839.379 582.043L855.676 572.639C856.109 573.88 856.414 575.171 856.414 576.527L856.413 660.431C856.413 662.396 855.383 663.997 853.926 664.906V664.915L853.817 664.979C853.79 664.995 853.762 665.011 853.734 665.027L837.561 674.552C839.09 673.66 840.181 672.015 840.181 669.991Z" fill="url(#paint15_linear_29_7562)"/>
<path d="M842.505 703.285L841.923 700.121L789.492 669.753C786.308 667.909 784.331 664.476 784.331 660.794V591.442L781.439 588.121L775.136 579.559L788.658 571.737L788.672 571.747L789.3 571.369C790.371 570.718 791.448 570.389 792.5 570.389C793.394 570.389 794.265 570.629 795.089 571.105L864.532 611.25C867.833 613.155 869.883 616.709 869.883 620.526L869.882 704.428C869.882 705.882 869.171 707.159 867.933 707.934L867.765 708.038L852.355 717.113L842.505 703.285Z" fill="url(#paint16_linear_29_7562)"/>
<path d="M792.499 571.534C793.191 571.534 793.869 571.723 794.515 572.096L863.962 612.242C866.909 613.943 868.739 617.117 868.739 620.526L868.738 704.428C868.738 705.479 868.224 706.402 867.328 706.962L867.219 707.031L867.187 707.051L852.678 715.595L843.583 702.827L843.143 700.433L842.952 699.394L842.039 698.865L790.063 668.763C787.232 667.123 785.473 664.069 785.473 660.794V591.871V591.012L784.91 590.365L782.33 587.402L776.814 579.909L788.189 573.329L788.217 573.362L789.891 572.346C790.781 571.808 791.658 571.534 792.499 571.534ZM792.498 569.244C791.256 569.244 789.975 569.62 788.706 570.39L788.704 570.388L773.456 579.208L780.545 588.839L783.187 591.872V660.795C783.187 664.899 785.372 668.69 788.918 670.746L840.894 700.848L841.426 703.743L852.031 718.632L868.343 709.025C868.371 709.01 868.4 708.994 868.426 708.978L868.536 708.915V708.906C869.992 707.996 871.022 706.395 871.022 704.43L871.023 620.527C871.023 616.29 868.766 612.374 865.102 610.26L795.657 570.115C794.661 569.538 793.595 569.244 792.498 569.244Z" fill="#FDFEFE"/>
<path d="M849.508 718.134C848.787 718.134 848.094 717.945 847.449 717.571L777.195 676.881C774.011 675.038 772.034 671.605 772.034 667.923V583.665C772.034 581.184 774.115 579.649 776.043 579.649C776.739 579.649 777.409 579.831 778.033 580.192L848.296 620.808C851.597 622.714 853.647 626.268 853.647 630.084L853.646 713.989C853.646 715.13 853.2 716.186 852.391 716.963C851.615 717.708 850.565 718.134 849.508 718.134Z" fill="url(#paint17_linear_29_7562)"/>
<path d="M776.042 580.793C776.535 580.793 777.013 580.925 777.46 581.183L847.725 621.8C850.672 623.502 852.504 626.677 852.504 630.084L852.502 713.989C852.502 715.842 850.947 716.989 849.507 716.989C848.989 716.989 848.489 716.851 848.019 716.58L777.765 675.889C774.934 674.25 773.175 671.197 773.175 667.922V583.665C773.175 581.891 774.663 580.793 776.042 580.793ZM776.042 578.504C773.355 578.504 770.891 580.657 770.891 583.665V667.921C770.891 672.025 773.075 675.817 776.622 677.871L846.877 718.561C847.727 719.054 848.629 719.278 849.507 719.278C852.261 719.278 854.788 717.072 854.788 713.988L854.79 630.084C854.79 625.847 852.531 621.932 848.867 619.816L778.603 579.199C777.775 578.722 776.897 578.504 776.042 578.504Z" fill="#FDFEFE"/>
<path d="M852.134 718.571L852.029 718.632L852.021 718.619C852.057 718.599 852.098 718.592 852.134 718.571Z" fill="url(#paint18_linear_29_7562)"/>
<path d="M852.134 718.571L852.133 718.572L852.134 718.571ZM852.133 718.572C852.098 718.592 852.057 718.6 852.021 718.619L852.029 718.633L852.133 718.572Z" fill="#FDFEFE"/>
<path d="M855.847 715.057C855.905 714.708 855.934 714.351 855.934 713.989L855.936 630.083C855.936 628.969 855.751 627.811 855.371 626.565L869.608 618.351C869.795 619.122 869.884 619.831 869.884 620.525L869.882 704.428C869.882 705.882 869.171 707.159 867.933 707.931L867.737 708.054L855.847 715.057Z" fill="url(#paint19_linear_29_7562)"/>
<path d="M868.732 620.177C868.738 620.294 868.74 620.41 868.74 620.525L868.74 704.428C868.74 705.479 868.226 706.401 867.33 706.96L867.178 707.056L857.078 713.005L857.079 630.084C857.079 629.128 856.957 628.145 856.707 627.117L868.732 620.177ZM870.288 616.638L853.99 626.042C854.462 627.329 854.794 628.67 854.794 630.084L854.792 713.989C854.792 715.997 853.719 717.63 852.21 718.528L868.346 709.025C868.374 709.01 868.402 708.994 868.429 708.978L868.538 708.914V708.905C869.994 707.996 871.025 706.395 871.025 704.429L871.026 620.526C871.026 619.17 870.721 617.879 870.288 616.638ZM852.21 718.528L852.172 718.55C852.185 718.542 852.198 718.535 852.21 718.528Z" fill="#FDFEFE"/>
<path d="M811.702 625.251C811.699 626.251 811.533 626.892 811.22 627.218C810.899 627.527 810.404 627.494 809.729 627.102C809.244 626.822 808.741 626.437 808.212 625.941L808.203 629.297C808.714 629.835 809.399 630.348 810.267 630.85C811.191 631.384 812.023 631.602 812.748 631.494C813.48 631.391 814.04 630.956 814.436 630.183C814.841 629.416 815.046 628.354 815.049 626.996L815.106 606.928L811.76 604.993L811.702 625.251Z" fill="white"/>
<path d="M821.022 625.856L825.712 628.568L826.73 634.386L830.085 636.326L825.683 612.962L821.14 610.334L816.629 628.542L819.975 630.477L821.022 625.856ZM822.998 616.879C823.166 615.996 823.305 615.18 823.408 614.428C823.453 614.844 823.569 615.702 823.767 616.996C823.965 618.281 824.09 619.092 824.144 619.418L825.091 624.782L821.7 622.821C822.395 619.735 822.831 617.763 822.998 616.879Z" fill="white"/>
<path d="M838.211 641.026L842.503 622.775L839.138 620.829L836.771 632.119C836.502 633.354 836.288 634.77 836.109 636.374C835.904 634.242 835.708 632.59 835.491 631.379L833.178 617.382L829.814 615.436L833.961 638.568L838.211 641.026Z" fill="white"/>
<path d="M845.462 645.22L846.51 640.598L851.191 643.305L852.209 649.122L855.574 651.067L851.162 627.698L846.627 625.075L842.116 643.284L845.462 645.22ZM848.476 631.616C848.644 630.732 848.783 629.917 848.896 629.17C848.932 629.581 849.049 630.439 849.246 631.734C849.444 633.018 849.579 633.834 849.633 634.161L850.579 639.525L847.178 637.558C847.882 634.476 848.309 632.499 848.476 631.616Z" fill="white"/>
<path d="M842.014 652.415L816.629 637.688V638.982L842.014 653.708V652.415Z" fill="white"/>
<path d="M816.629 641.523L855.574 664.087V662.794L816.629 640.228V641.523Z" fill="white"/>
<path d="M843.709 654.667L855.572 661.547V660.255L843.709 653.374V654.667Z" fill="white"/>
<path d="M842.014 657.371L816.629 642.644V643.937L842.014 658.664V657.371Z" fill="white"/>
<path d="M816.629 646.478L855.574 669.044V667.75L816.629 645.184V646.478Z" fill="white"/>
<path d="M843.709 659.623L855.572 666.505V665.21L843.709 658.329V659.623Z" fill="white"/>
<path d="M842.014 664.532L816.629 649.805V651.099L842.014 665.825V664.532Z" fill="white"/>
<path d="M816.629 653.639L855.574 676.205V674.911L816.629 652.346V653.639Z" fill="white"/>
<path d="M843.709 666.784L855.572 673.665V672.372L843.709 665.49V666.784Z" fill="white"/>
<path d="M842.014 669.488L816.629 654.761V656.055L842.014 670.783V669.488Z" fill="white"/>
<path d="M816.629 658.595L855.574 681.161V679.868L816.629 657.302V658.595Z" fill="white"/>
<path d="M843.709 671.74L855.572 678.622V677.328L843.709 670.447V671.74Z" fill="white"/>
<path d="M842.014 676.65L816.629 661.922V663.216L842.014 677.943V676.65Z" fill="white"/>
<path d="M816.629 665.757L855.574 688.323V687.029L816.629 664.463V665.757Z" fill="white"/>
<path d="M843.709 678.901L855.572 685.783V684.489L843.709 677.608V678.901Z" fill="white"/>
<path d="M842.014 681.606L816.629 666.879V668.172L842.014 682.899V681.606Z" fill="white"/>
<path d="M816.629 670.713L855.574 693.278V691.985L816.629 669.419V670.713Z" fill="white"/>
<path d="M843.709 683.858L855.572 690.739V689.445L843.709 682.563V683.858Z" fill="white"/>
<path d="M842.014 688.767L816.629 674.04V675.334L842.014 690.06V688.767Z" fill="white"/>
<path d="M816.629 677.873L855.574 700.439V699.146L816.629 676.581V677.873Z" fill="white"/>
<path d="M843.709 691.019L855.572 697.899V696.607L843.709 689.725V691.019Z" fill="white"/>
<path d="M842.014 693.723L816.629 678.996V680.289L842.014 695.016V693.723Z" fill="white"/>
<path d="M816.629 682.83L855.574 705.396V704.102L816.629 681.536V682.83Z" fill="white"/>
<path d="M843.709 695.975L855.572 702.855V701.562L843.709 694.681V695.975Z" fill="white"/>
<g opacity="0.46">
<path opacity="0.46" d="M776.021 713.873L644.537 789.722C639.553 792.597 633.331 788.993 633.331 783.232V742.461C633.331 739.783 634.759 737.308 637.077 735.971L768.561 660.122C773.544 657.247 779.766 660.851 779.766 666.612V707.384C779.765 710.062 778.338 712.537 776.021 713.873Z" fill="#CDE9F9"/>
</g>
<g opacity="0.46">
<path opacity="0.46" d="M938.525 650.966L807.041 726.815C802.058 729.69 795.836 726.086 795.836 720.325V679.554C795.836 676.876 797.263 674.401 799.581 673.064L931.065 597.216C936.048 594.341 942.271 597.945 942.271 603.705V644.477C942.271 647.156 940.843 649.63 938.525 650.966Z" fill="#CDE9F9"/>
</g>
<g opacity="0.46">
<path opacity="0.46" d="M950.818 568.72L819.334 644.568C814.35 647.443 808.128 643.84 808.128 638.079V597.307C808.128 594.629 809.556 592.154 811.874 590.818L943.358 514.969C948.341 512.094 954.563 515.698 954.563 521.459V562.23C954.563 564.908 953.135 567.383 950.818 568.72Z" fill="#CDE9F9"/>
</g>
<defs>
<linearGradient id="paint0_linear_29_7562" x1="584.819" y1="390.487" x2="921.683" y2="390.487" gradientUnits="userSpaceOnUse">
<stop stop-color="#21409A"/>
<stop offset="0.9984" stop-color="#29ABE2" stop-opacity="0"/>
</linearGradient>
<linearGradient id="paint1_linear_29_7562" x1="708.537" y1="402.928" x2="908.16" y2="402.928" gradientUnits="userSpaceOnUse">
<stop offset="0.5191" stop-color="#21285A"/>
<stop offset="0.7064" stop-color="#21295A" stop-opacity="0.6104"/>
<stop offset="0.7739" stop-color="#222D5E" stop-opacity="0.4701"/>
<stop offset="0.822" stop-color="#233463" stop-opacity="0.37"/>
<stop offset="0.861" stop-color="#253E6B" stop-opacity="0.2891"/>
<stop offset="0.8943" stop-color="#274A77" stop-opacity="0.2198"/>
<stop offset="0.9238" stop-color="#2A5986" stop-opacity="0.1584"/>
<stop offset="0.9505" stop-color="#2E6D9A" stop-opacity="0.1029"/>
<stop offset="0.975" stop-color="#2F85B5" stop-opacity="0.0519"/>
<stop offset="0.9969" stop-color="#2CA5D9" stop-opacity="0.01"/>
<stop offset="1" stop-color="#29ABE2" stop-opacity="0"/>
</linearGradient>
<linearGradient id="paint2_linear_29_7562" x1="709.09" y1="354.216" x2="771.967" y2="354.216" gradientUnits="userSpaceOnUse">
<stop offset="0.0607" stop-color="#28A8E0"/>
<stop offset="0.9984" stop-color="#29ABE2" stop-opacity="0"/>
</linearGradient>
<linearGradient id="paint3_linear_29_7562" x1="609.482" y1="294.137" x2="696.818" y2="294.137" gradientUnits="userSpaceOnUse">
<stop offset="0.5191" stop-color="#21285A"/>
<stop offset="0.7064" stop-color="#21295A" stop-opacity="0.6104"/>
<stop offset="0.7739" stop-color="#222D5E" stop-opacity="0.4701"/>
<stop offset="0.822" stop-color="#233463" stop-opacity="0.37"/>
<stop offset="0.861" stop-color="#253E6B" stop-opacity="0.2891"/>
<stop offset="0.8943" stop-color="#274A77" stop-opacity="0.2198"/>
<stop offset="0.9238" stop-color="#2A5986" stop-opacity="0.1584"/>
<stop offset="0.9505" stop-color="#2E6D9A" stop-opacity="0.1029"/>
<stop offset="0.975" stop-color="#2F85B5" stop-opacity="0.0519"/>
<stop offset="0.9969" stop-color="#2CA5D9" stop-opacity="0.01"/>
<stop offset="1" stop-color="#29ABE2" stop-opacity="0"/>
</linearGradient>
<linearGradient id="paint4_linear_29_7562" x1="597.293" y1="296.427" x2="684.628" y2="296.427" gradientUnits="userSpaceOnUse">
<stop stop-color="#21409A"/>
<stop offset="0.9984" stop-color="#29ABE2" stop-opacity="0"/>
</linearGradient>
<linearGradient id="paint5_linear_29_7562" x1="440.959" y1="439.144" x2="476.61" y2="439.144" gradientUnits="userSpaceOnUse">
<stop stop-color="#6B385F"/>
<stop offset="0.4197" stop-color="#6F3B62" stop-opacity="0.7323"/>
<stop offset="0.5218" stop-color="#764268" stop-opacity="0.6035"/>
<stop offset="0.6937" stop-color="#8C567A" stop-opacity="0.3865"/>
<stop offset="0.9131" stop-color="#B5799B" stop-opacity="0.1096"/>
<stop offset="1" stop-color="#CC8DAE" stop-opacity="0"/>
</linearGradient>
<linearGradient id="paint6_linear_29_7562" x1="551.2" y1="331.066" x2="601.928" y2="331.066" gradientUnits="userSpaceOnUse">
<stop stop-color="#6B385F"/>
<stop offset="0.4197" stop-color="#6F3B62" stop-opacity="0.7323"/>
<stop offset="0.5218" stop-color="#764268" stop-opacity="0.6035"/>
<stop offset="0.6937" stop-color="#8C567A" stop-opacity="0.3865"/>
<stop offset="0.9131" stop-color="#B5799B" stop-opacity="0.1096"/>
<stop offset="1" stop-color="#CC8DAE" stop-opacity="0"/>
</linearGradient>
<linearGradient id="paint7_linear_29_7562" x1="410.049" y1="401.505" x2="604.954" y2="401.505" gradientUnits="userSpaceOnUse">
<stop offset="0.0607" stop-color="#28A8E0"/>
<stop offset="0.9984" stop-color="#29ABE2" stop-opacity="0"/>
</linearGradient>
<linearGradient id="paint8_linear_29_7562" x1="425.499" y1="426.85" x2="507.575" y2="426.85" gradientUnits="userSpaceOnUse">
<stop offset="0.4247" stop-color="white"/>
<stop offset="1" stop-color="#2484C6" stop-opacity="0"/>
</linearGradient>
<linearGradient id="paint9_linear_29_7562" x1="533.228" y1="466.911" x2="568.879" y2="466.911" gradientUnits="userSpaceOnUse">
<stop stop-color="#6B385F"/>
<stop offset="0.4197" stop-color="#6F3B62" stop-opacity="0.7323"/>
<stop offset="0.5218" stop-color="#764268" stop-opacity="0.6035"/>
<stop offset="0.6937" stop-color="#8C567A" stop-opacity="0.3865"/>
<stop offset="0.9131" stop-color="#B5799B" stop-opacity="0.1096"/>
<stop offset="1" stop-color="#CC8DAE" stop-opacity="0"/>
</linearGradient>
<linearGradient id="paint10_linear_29_7562" x1="667.036" y1="488.692" x2="717.765" y2="488.692" gradientUnits="userSpaceOnUse">
<stop stop-color="#6B385F"/>
<stop offset="0.4197" stop-color="#6F3B62" stop-opacity="0.7323"/>
<stop offset="0.5218" stop-color="#764268" stop-opacity="0.6035"/>
<stop offset="0.6937" stop-color="#8C567A" stop-opacity="0.3865"/>
<stop offset="0.9131" stop-color="#B5799B" stop-opacity="0.1096"/>
<stop offset="1" stop-color="#CC8DAE" stop-opacity="0"/>
</linearGradient>
<linearGradient id="paint11_linear_29_7562" x1="604.777" y1="612.994" x2="693.086" y2="612.994" gradientUnits="userSpaceOnUse">
<stop offset="0.0607" stop-color="#28A8E0"/>
<stop offset="0.9984" stop-color="#29ABE2" stop-opacity="0"/>
</linearGradient>
<linearGradient id="paint12_linear_29_7562" x1="758.843" y1="599.94" x2="856.411" y2="599.94" gradientUnits="userSpaceOnUse">
<stop stop-color="#21409A"/>
<stop offset="0.9984" stop-color="#29ABE2" stop-opacity="0"/>
</linearGradient>
<linearGradient id="paint13_linear_29_7562" x1="756.281" y1="604.894" x2="840.18" y2="604.894" gradientUnits="userSpaceOnUse">
<stop stop-color="#21409A"/>
<stop offset="0.9984" stop-color="#29ABE2" stop-opacity="0"/>
</linearGradient>
<linearGradient id="paint14_linear_29_7562" x1="837.412" y1="674.604" x2="837.525" y2="674.604" gradientUnits="userSpaceOnUse">
<stop stop-color="#21409A"/>
<stop offset="0.9984" stop-color="#29ABE2" stop-opacity="0"/>
</linearGradient>
<linearGradient id="paint15_linear_29_7562" x1="837.561" y1="623.596" x2="856.415" y2="623.596" gradientUnits="userSpaceOnUse">
<stop stop-color="#21409A"/>
<stop offset="0.9984" stop-color="#29ABE2" stop-opacity="0"/>
</linearGradient>
<linearGradient id="paint16_linear_29_7562" x1="775.136" y1="643.751" x2="869.883" y2="643.751" gradientUnits="userSpaceOnUse">
<stop offset="0.0607" stop-color="#28A8E0"/>
<stop offset="0.9984" stop-color="#29ABE2" stop-opacity="0"/>
</linearGradient>
<linearGradient id="paint17_linear_29_7562" x1="772.033" y1="648.891" x2="853.647" y2="648.891" gradientUnits="userSpaceOnUse">
<stop offset="0.0607" stop-color="#28A8E0"/>
<stop offset="0.9984" stop-color="#29ABE2" stop-opacity="0"/>
</linearGradient>
<linearGradient id="paint18_linear_29_7562" x1="852.021" y1="718.602" x2="852.134" y2="718.602" gradientUnits="userSpaceOnUse">
<stop offset="0.0607" stop-color="#28A8E0"/>
<stop offset="0.9984" stop-color="#29ABE2" stop-opacity="0"/>
</linearGradient>
<linearGradient id="paint19_linear_29_7562" x1="855.371" y1="666.704" x2="869.884" y2="666.704" gradientUnits="userSpaceOnUse">
<stop offset="0.0607" stop-color="#28A8E0"/>
<stop offset="0.9984" stop-color="#29ABE2" stop-opacity="0"/>
</linearGradient>
</defs>
</svg>
