<svg width="902" height="778" viewBox="0 0 902 778" fill="none" xmlns="http://www.w3.org/2000/svg">
<path d="M466.779 769.747L126.598 573.326C114.275 566.211 114.275 548.423 126.599 541.309L504.043 323.409C516.637 316.139 532.149 316.124 544.757 323.369L892.575 523.266C904.926 530.365 904.944 548.178 892.607 555.301L521.209 769.747C504.368 779.471 483.62 779.471 466.779 769.747Z" fill="#E7F6FD"/>
<path d="M732.613 517.128L720.933 523.878L496.023 653.738C485.293 659.928 472.073 659.928 461.343 653.738L245.793 529.268L244.643 528.608C236.793 524.078 236.793 512.748 244.643 508.218L485.083 369.408C493.103 364.778 502.983 364.768 511.023 369.388L732.583 496.728C740.453 501.248 740.463 512.598 732.613 517.128Z" fill="url(#paint0_linear_29_4455)"/>
<path d="M720.933 523.878L496.023 653.738C485.293 659.928 472.073 659.928 461.343 653.738L245.793 529.268L474.553 397.208C482.573 392.578 492.453 392.568 500.483 397.188L720.933 523.878Z" fill="#222457"/>
<path d="M720.933 523.878L496.023 653.738C485.293 659.928 472.073 659.928 461.343 653.738L245.793 529.268L474.553 397.208C482.573 392.578 492.453 392.568 500.483 397.188L720.933 523.878Z" fill="url(#paint1_linear_29_4455)"/>
<g opacity="0.46">
<path opacity="0.46" d="M187.282 320.389L15.1237 420.511C8.59875 424.306 0.411752 419.62 0.378752 412.071L0.148772 358.65C0.133772 355.141 1.99377 351.89 5.02777 350.126L177.186 250.005C183.711 246.21 191.898 250.897 191.931 258.445L192.161 311.866C192.176 315.375 190.316 318.625 187.282 320.389Z" fill="#CDE9F9"/>
</g>
<g opacity="0.46">
<path opacity="0.46" d="M348.333 330.339L176.175 430.46C169.65 434.255 161.463 429.569 161.43 422.02L161.2 368.599C161.185 365.09 163.045 361.839 166.079 360.075L338.237 259.954C344.762 256.159 352.949 260.845 352.982 268.394L353.212 321.815C353.227 325.324 351.367 328.575 348.333 330.339Z" fill="#CDE9F9"/>
</g>
<g opacity="0.46">
<path opacity="0.46" d="M395.163 200.309L223.005 300.431C216.48 304.226 208.293 299.54 208.26 291.991L208.03 238.57C208.015 235.061 209.875 231.81 212.909 230.046L385.067 129.925C391.592 126.13 399.779 130.816 399.812 138.365L400.042 191.786C400.057 195.295 398.197 198.545 395.163 200.309Z" fill="#CDE9F9"/>
</g>
<path d="M655.813 414.788C655.713 419.278 653.293 423.528 649.233 425.868L575.883 468.218V335.258C578.673 335.968 581.373 336.758 583.983 337.608C632.233 353.358 649.563 392.038 655.243 410.628C655.663 412.008 655.853 413.408 655.813 414.788Z" fill="#306097"/>
<path d="M655.813 414.788C636.173 356.858 594.873 346.278 575.883 344.568C569.753 344.018 565.943 344.388 565.943 344.388C565.943 344.388 569.643 342.378 575.883 340.138C578.233 339.298 580.953 338.418 583.983 337.608C632.233 353.358 649.563 392.038 655.243 410.628C655.663 412.008 655.853 413.408 655.813 414.788Z" fill="url(#paint2_linear_29_4455)"/>
<path d="M607.989 475.542V186.507L305.669 218.145V500.873L305.634 510.262C305.219 513.946 305.208 517.603 305.594 521.211V521.283C305.594 521.283 305.619 521.582 305.698 522.125C307.878 539.423 319.352 555.525 340.554 567.767C364.028 581.321 395.557 587.92 428.948 587.92C472.103 587.92 518.362 576.891 554.303 555.602C593.455 532.406 611.873 502.362 607.989 475.542ZM328.774 558.49C326.925 556.984 325.183 555.433 323.552 553.838C325.305 555.503 327.041 557.046 328.774 558.49ZM378.755 581.322C370.581 579.374 362.875 576.937 355.756 574.032C362.54 576.634 370.038 578.886 378.755 581.322ZM427.109 586.896C430.523 586.871 433.974 586.819 437.495 586.778C434.645 586.872 431.795 586.92 428.948 586.92C428.331 586.92 427.723 586.901 427.109 586.896ZM553.793 554.741C553.419 554.962 553.037 555.177 552.66 555.397C557.02 552.714 561.131 550.125 565.031 547.493C561.482 549.981 557.74 552.403 553.793 554.741Z" fill="#E7F6FD"/>
<path d="M355.753 330.478C388.933 369.998 390.993 398.468 375.623 493.238C368.533 536.948 398.933 567.058 433.753 586.818C433.783 586.838 433.803 586.848 433.833 586.868C434.403 587.188 434.973 587.508 435.553 587.828C433.343 587.888 431.143 587.918 428.943 587.918C395.553 587.918 364.023 581.318 340.553 567.768C319.353 555.528 307.873 539.418 305.693 522.128C305.623 521.578 305.593 521.278 305.593 521.278V521.208C305.203 517.598 305.223 513.948 305.633 510.258L305.673 500.868V218.148L430.723 205.058C449.443 210.928 452.723 218.318 422.893 227.408C326.763 256.708 322.583 290.958 355.753 330.478Z" fill="url(#paint3_linear_29_4455)"/>
<path d="M607.993 475.538V186.508L430.723 205.058L308.643 217.838L305.673 218.148V500.868L305.633 510.258C305.223 513.948 305.203 517.598 305.593 521.208V521.278C305.593 521.278 305.623 521.578 305.693 522.128C307.873 539.418 319.353 555.528 340.553 567.768C351.093 573.858 363.243 578.528 376.463 581.838C392.693 585.908 410.533 587.918 428.943 587.918C431.143 587.918 433.343 587.888 435.553 587.828C476.783 586.768 520.193 575.808 554.303 555.598C593.453 532.408 611.873 502.358 607.993 475.538ZM323.553 553.838C325.303 555.498 327.043 557.048 328.773 558.488C326.923 556.988 325.183 555.428 323.553 553.838ZM375.313 580.458C368.413 578.678 361.863 576.528 355.753 574.028C361.603 576.278 367.963 578.258 375.193 580.318C376.353 580.648 377.543 580.978 378.753 581.318C377.593 581.048 376.443 580.758 375.313 580.458ZM433.833 586.868C432.203 586.898 430.573 586.918 428.943 586.918C428.333 586.918 427.723 586.898 427.113 586.898C429.303 586.878 431.513 586.848 433.753 586.818C434.993 586.808 436.233 586.788 437.493 586.778C436.273 586.818 435.053 586.848 433.833 586.868ZM553.793 554.738C553.423 554.958 553.033 555.178 552.663 555.398C557.023 552.718 561.133 550.128 565.033 547.488C561.483 549.978 557.743 552.408 553.793 554.738Z" fill="url(#paint4_linear_29_4455)"/>
<path d="M376.463 581.838C363.243 578.528 351.093 573.858 340.553 567.768C319.353 555.528 307.873 539.418 305.693 522.128C305.623 521.578 305.593 521.278 305.593 521.278V521.208C305.203 517.598 305.223 513.948 305.633 510.258L305.673 500.868V303.198C321.093 345.118 356.563 383.538 347.813 461.558C340.993 522.358 357.823 559.148 375.193 580.318C375.233 580.368 375.273 580.418 375.313 580.458C375.693 580.928 376.073 581.388 376.463 581.838Z" fill="url(#paint5_linear_29_4455)"/>
<path d="M356.893 465.378V575.298L285.493 616.528L283.343 617.768C277.423 621.188 270.193 616.128 271.393 609.398C276.793 579.168 294.213 513.468 347.813 461.558C351.213 458.268 356.893 460.638 356.893 465.378Z" fill="#3C7FBE"/>
<path d="M608.709 196.774C608.909 194.856 609.017 192.939 609.006 191.026C608.955 181.819 606.367 173.024 601.473 164.95C601.397 164.786 601.321 164.617 601.246 164.455C569.67 74.889 490.515 -6.04599 439.225 0.662008C417.14 3.55001 374.923 56.149 346.024 109.743C319.775 158.422 305.67 208.69 305.67 208.69C305.67 208.69 303.535 216.632 304.149 226.525C304.598 238.973 309.739 250.667 319.028 260.833C321.491 263.822 324.528 266.84 328.152 269.285C328.162 269.292 328.172 269.298 328.181 269.305C331.667 272.057 335.506 274.654 339.692 277.071C340.231 277.382 340.796 277.671 341.344 277.975C341.926 278.303 342.527 278.632 343.149 278.963C365.114 290.655 393.315 296.693 423.298 297.326C441.025 298.254 458.821 296.417 475.301 293.219C499.053 288.998 522.32 281.597 542.99 271.134C546.305 269.526 548.861 268.147 550.516 267.13C550.535 267.118 550.556 267.105 550.575 267.094C551.872 266.366 553.161 265.628 554.433 264.874C577.974 250.929 594.678 234.113 602.995 216.557C603.009 216.533 603.024 216.51 603.038 216.486C606.792 210.127 608.426 203.397 608.709 196.774ZM398.133 294.467C391.842 293.639 385.707 292.535 379.762 291.172C385.21 292.325 391.3 293.43 398.133 294.467Z" fill="#BD8AAE"/>
<path d="M601.473 164.948C601.393 164.788 601.323 164.618 601.243 164.458C569.673 74.888 490.513 -6.04198 439.223 0.658019C438.293 0.778019 437.333 0.988018 436.333 1.29802C434.073 1.94802 431.633 3.04802 429.063 4.54802C405.783 18.028 370.953 63.518 346.023 109.738C319.773 158.418 305.673 208.688 305.673 208.688C305.673 208.688 303.533 216.628 304.143 226.528C304.343 232.008 305.453 237.348 307.423 242.468C309.933 248.978 313.823 255.148 319.023 260.828C321.493 263.818 324.523 266.838 328.153 269.288C328.163 269.288 328.173 269.298 328.183 269.308C331.663 272.058 335.503 274.648 339.693 277.068C340.233 277.378 340.793 277.668 341.343 277.978C341.923 278.298 342.523 278.628 343.143 278.958C363.433 289.768 389.043 295.738 416.463 297.088C418.723 297.198 421.003 297.278 423.293 297.328C441.023 298.248 458.823 296.418 475.303 293.218C499.053 288.998 522.323 281.598 542.993 271.128C546.303 269.528 548.863 268.148 550.513 267.128C550.533 267.118 550.553 267.108 550.573 267.088C551.873 266.368 553.163 265.628 554.433 264.868C577.973 250.928 594.673 234.108 602.993 216.558C603.013 216.528 603.023 216.508 603.033 216.488C606.793 210.128 608.423 203.398 608.713 196.778C608.913 194.858 609.013 192.938 609.003 191.028C608.953 181.818 606.363 173.028 601.473 164.948ZM379.763 291.168C385.213 292.328 391.303 293.428 398.133 294.468C391.843 293.638 385.703 292.538 379.763 291.168Z" fill="url(#paint6_linear_29_4455)"/>
<path d="M519.64 307.198C479.495 330.378 446.649 387.274 446.649 433.634C446.649 479.994 479.495 498.959 519.64 475.779C559.785 452.599 592.631 395.703 592.631 349.343C592.631 302.983 559.785 284.018 519.64 307.198Z" fill="url(#paint7_linear_29_4455)"/>
<path d="M356.893 465.378V468.198C341.423 484.428 289.703 543.818 285.493 616.528L283.343 617.768C277.423 621.188 270.193 616.128 271.393 609.398C276.793 579.168 294.213 513.468 347.813 461.558C351.213 458.268 356.893 460.638 356.893 465.378Z" fill="url(#paint8_linear_29_4455)"/>
<path d="M580.248 426.229C608.749 376.849 608.744 323.481 580.236 307.027C551.728 290.572 505.513 317.263 477.012 366.643C448.511 416.022 448.517 469.391 477.025 485.845C505.532 502.299 551.747 475.608 580.248 426.229Z" fill="white"/>
<path d="M531.64 332.304C501.071 349.955 476.06 393.279 476.06 428.58C476.06 463.881 501.071 478.323 531.64 460.672C562.209 443.021 587.22 399.697 587.22 364.396C587.22 329.095 562.209 314.653 531.64 332.304Z" fill="url(#paint9_linear_29_4455)"/>
<path d="M607.993 242.128C599.513 250.918 589.423 260.118 577.513 268.858C542.833 294.338 500.203 310.488 450.813 316.878C441.953 318.018 433.473 318.548 425.353 318.548C379.333 318.548 345.193 301.738 323.553 286.298C316.763 281.458 310.803 276.478 305.673 271.728V267.618C311.173 272.868 317.743 278.488 325.393 283.928C350.403 301.748 392.393 321.408 450.423 313.898C499.313 307.578 541.473 291.608 575.733 266.438C588.493 257.068 599.173 247.138 607.993 237.768V242.128Z" fill="white"/>
<path d="M416.463 297.088C389.043 295.738 363.433 289.768 343.143 278.958C342.523 278.628 341.923 278.298 341.343 277.978C340.793 277.668 340.233 277.378 339.693 277.068C335.503 274.648 331.663 272.058 328.183 269.308C328.173 269.298 328.163 269.288 328.153 269.288C324.523 266.838 321.493 263.818 319.023 260.828C313.823 255.148 309.933 248.978 307.423 242.468C318.233 192.128 374.393 63.548 429.063 4.54803C431.633 3.04803 434.073 1.94803 436.333 1.29803C427.623 29.568 416.023 81.858 412.503 166.528C409.823 230.818 412.623 271.668 416.463 297.088Z" fill="url(#paint10_linear_29_4455)"/>
<path d="M507.215 667.771V683.68C507.215 687.6 509.306 691.222 512.7 693.181L560.019 720.503C564.309 722.98 569.595 722.98 573.885 720.503L750.907 618.291C754.303 616.33 756.396 612.706 756.396 608.784V592.125C756.396 592.125 694.623 593.746 681.588 599.61C668.554 605.474 507.215 667.771 507.215 667.771Z" fill="url(#paint11_linear_29_4455)"/>
<path d="M510.047 672.631L555.703 699.078C562.662 703.109 571.245 703.115 578.21 699.094L752.86 598.251C757.574 595.529 757.573 588.724 752.857 586.004L713.341 563.212C703.803 557.711 692.055 557.714 682.519 563.219L510.053 662.801C506.272 664.985 506.268 670.442 510.047 672.631Z" fill="#E7F6FD"/>
<path d="M510.047 672.631L555.703 699.078C562.662 703.109 571.245 703.115 578.21 699.094L752.86 598.251C757.574 595.529 757.573 588.724 752.857 586.004L713.341 563.212C703.803 557.711 692.055 557.714 682.519 563.219L510.053 662.801C506.272 664.985 506.268 670.442 510.047 672.631Z" fill="url(#paint12_linear_29_4455)"/>
<path d="M683.939 578.387L683.918 574.479L683.907 578.095L683.929 582.004L683.939 578.387Z" fill="url(#paint13_linear_29_4455)"/>
<path d="M719.848 583.089L715.092 585.852L715.082 589.468L719.838 586.705L719.848 583.089Z" fill="url(#paint14_linear_29_4455)"/>
<path d="M664.516 585.852L659.729 583.089L659.719 586.705L664.506 589.468L664.516 585.852Z" fill="url(#paint15_linear_29_4455)"/>
<path d="M674.671 598.378C674.695 598.248 674.735 598.118 674.769 597.987C674.809 597.835 674.847 597.682 674.9 597.53C674.945 597.405 675.004 597.282 675.057 597.158C675.126 596.999 675.195 596.84 675.28 596.683C675.341 596.569 675.416 596.456 675.485 596.343C675.595 596.164 675.712 595.986 675.843 595.811C675.921 595.707 676.005 595.605 676.09 595.503C676.286 595.267 676.503 595.034 676.737 594.807C676.822 594.725 676.9 594.64 676.989 594.559C677.135 594.427 677.299 594.299 677.459 594.171C677.599 594.058 677.734 593.944 677.886 593.834C678.059 593.709 678.249 593.589 678.436 593.467C678.628 593.342 678.81 593.214 679.016 593.094C679.473 592.828 679.959 592.59 680.457 592.365C680.599 592.301 680.745 592.241 680.891 592.18C681.282 592.016 681.683 591.865 682.092 591.725C682.239 591.675 682.383 591.621 682.532 591.574C682.789 591.493 683.053 591.422 683.317 591.35C683.517 591.295 683.715 591.237 683.919 591.188C684.195 591.121 684.478 591.065 684.759 591.008C684.952 590.969 685.144 590.925 685.339 590.89C685.911 590.789 686.491 590.71 687.076 590.648C687.255 590.629 687.436 590.618 687.616 590.603C687.96 590.575 688.304 590.549 688.649 590.534C688.87 590.524 689.091 590.519 689.311 590.515C689.59 590.51 689.869 590.508 690.148 590.511C690.381 590.514 690.615 590.521 690.848 590.53C691.106 590.54 691.364 590.554 691.622 590.571C691.858 590.587 692.093 590.607 692.327 590.63C692.583 590.655 692.836 590.683 693.089 590.715C693.318 590.744 693.545 590.776 693.772 590.811C694.044 590.853 694.313 590.901 694.581 590.952C694.793 590.992 695.005 591.034 695.214 591.08C695.534 591.15 695.849 591.23 696.162 591.312C696.337 591.358 696.514 591.402 696.686 591.453C697.247 591.616 697.795 591.8 698.324 592.006C698.587 592.108 698.841 592.221 699.095 592.334C699.227 592.392 699.363 592.445 699.491 592.507C699.876 592.69 700.251 592.883 700.611 593.091C703.62 594.828 705.122 597.107 705.115 599.383L705.125 595.767C705.132 593.491 703.63 591.212 700.621 589.475C700.261 589.267 699.886 589.073 699.501 588.89C699.372 588.829 699.236 588.776 699.104 588.717C698.877 588.616 698.652 588.511 698.418 588.418C698.391 588.408 698.361 588.4 698.335 588.39C697.804 588.183 697.256 588 696.695 587.836C696.65 587.823 696.609 587.805 696.564 587.792C696.437 587.756 696.303 587.73 696.174 587.696C695.86 587.613 695.545 587.533 695.224 587.463C695.139 587.444 695.057 587.419 694.971 587.401C694.846 587.375 694.716 587.359 694.59 587.335C694.322 587.284 694.053 587.236 693.782 587.194C693.673 587.177 693.567 587.153 693.458 587.138C693.34 587.121 693.219 587.113 693.1 587.098C692.846 587.066 692.592 587.037 692.336 587.013C692.214 587.001 692.095 586.982 691.973 586.973C691.86 586.963 691.745 586.963 691.632 586.954C691.374 586.936 691.115 586.923 690.855 586.913C690.726 586.908 690.598 586.896 690.468 586.892C690.365 586.889 690.262 586.895 690.159 586.893C689.878 586.89 689.598 586.892 689.317 586.897C689.179 586.9 689.041 586.895 688.904 586.899C688.822 586.902 688.742 586.912 688.66 586.915C688.314 586.93 687.97 586.955 687.626 586.984C687.488 586.995 687.348 586.998 687.211 587.012C687.168 587.016 687.127 587.025 687.084 587.03C686.499 587.091 685.919 587.171 685.347 587.272C685.319 587.277 685.29 587.279 685.263 587.284C685.098 587.314 684.938 587.355 684.775 587.388C684.49 587.446 684.206 587.502 683.926 587.57C683.724 587.619 683.528 587.677 683.329 587.731C683.064 587.803 682.8 587.874 682.541 587.956C682.486 587.973 682.428 587.986 682.372 588.004C682.279 588.034 682.194 588.075 682.102 588.106C681.692 588.246 681.292 588.397 680.901 588.561C680.755 588.622 680.609 588.682 680.466 588.746C679.968 588.971 679.482 589.209 679.025 589.474C678.962 589.511 678.9 589.547 678.839 589.584C678.699 589.668 678.58 589.759 678.447 589.845C678.26 589.967 678.069 590.087 677.896 590.213C677.745 590.323 677.61 590.437 677.47 590.55C677.31 590.678 677.147 590.806 677 590.938C676.971 590.965 676.935 590.989 676.906 591.016C676.847 591.071 676.805 591.13 676.748 591.186C676.513 591.413 676.296 591.645 676.1 591.882C676.057 591.934 676 591.982 675.958 592.034C675.918 592.085 675.892 592.139 675.853 592.19C675.722 592.366 675.605 592.544 675.494 592.723C675.447 592.798 675.386 592.871 675.343 592.947C675.321 592.985 675.309 593.024 675.289 593.062C675.204 593.219 675.136 593.378 675.066 593.537C675.026 593.63 674.971 593.721 674.936 593.814C674.924 593.846 674.92 593.878 674.908 593.909C674.854 594.06 674.817 594.212 674.778 594.364C674.751 594.467 674.71 594.57 674.689 594.673C674.683 594.7 674.685 594.728 674.679 594.755C674.65 594.915 674.639 595.076 674.624 595.236C674.615 595.34 674.592 595.444 674.588 595.549C674.586 595.593 674.586 595.638 674.586 595.683L674.576 599.299C674.577 599.15 674.6 599 674.614 598.851C674.63 598.698 674.642 598.538 674.671 598.378Z" fill="url(#paint16_linear_29_4455)"/>
<path d="M719.818 599.102C719.747 599.32 719.662 599.536 719.576 599.753C719.518 599.901 719.455 600.048 719.39 600.195C719.329 600.333 719.266 600.471 719.199 600.609C719.128 600.755 719.052 600.9 718.974 601.045C718.902 601.179 718.829 601.311 718.751 601.444C718.653 601.613 718.547 601.781 718.44 601.948C718.361 602.071 718.283 602.193 718.199 602.315C718.081 602.487 717.954 602.656 717.827 602.826C717.743 602.938 717.661 603.051 717.572 603.162C717.323 603.475 717.06 603.786 716.777 604.092C716.739 604.133 716.696 604.173 716.657 604.214C716.407 604.48 716.144 604.742 715.869 605.001C715.653 605.204 715.435 605.407 715.204 605.606L715.194 609.222C715.384 609.058 715.569 608.893 715.749 608.727C715.788 608.691 715.822 608.653 715.86 608.616C716.134 608.358 716.396 608.097 716.644 607.833C716.684 607.791 716.728 607.75 716.767 607.707C717.05 607.401 717.312 607.091 717.562 606.779C717.583 606.752 717.608 606.727 717.629 606.701C717.696 606.615 717.753 606.528 717.818 606.441C717.945 606.272 718.071 606.103 718.189 605.932C718.273 605.81 718.352 605.686 718.43 605.563C718.538 605.396 718.643 605.228 718.741 605.06C718.773 605.005 718.812 604.951 718.843 604.895C718.887 604.817 718.923 604.737 718.965 604.659C719.043 604.515 719.118 604.37 719.189 604.225C719.257 604.086 719.32 603.947 719.382 603.808C719.447 603.662 719.509 603.515 719.568 603.369C719.593 603.304 719.625 603.239 719.65 603.173C719.707 603.021 719.761 602.869 719.81 602.717H726.557L726.567 599.101H719.818V599.102Z" fill="url(#paint17_linear_29_4455)"/>
<path d="M664.617 609.223L664.627 605.607C662.28 603.608 660.714 601.392 659.939 599.103H653.192L653.182 602.719H659.929C660.704 605.008 662.269 607.224 664.617 609.223Z" fill="url(#paint18_linear_29_4455)"/>
<path d="M706.994 610.377C706.185 610.695 705.352 610.983 704.504 611.251C704.037 611.399 703.555 611.522 703.078 611.655C702.631 611.779 702.191 611.913 701.737 612.023C701.251 612.141 700.752 612.235 700.258 612.338C699.799 612.433 699.345 612.539 698.88 612.621C697.859 612.802 696.825 612.955 695.781 613.072L695.771 616.688C696.815 616.571 697.848 616.418 698.869 616.237C698.919 616.228 698.971 616.224 699.021 616.215C699.439 616.14 699.845 616.038 700.259 615.952C700.749 615.85 701.243 615.757 701.726 615.64C702.184 615.529 702.627 615.394 703.077 615.269C703.551 615.137 704.03 615.015 704.494 614.868C704.549 614.85 704.607 614.838 704.662 614.82C705.453 614.567 706.228 614.292 706.984 613.994L711.771 616.757L719.981 611.986L719.991 608.37L711.781 613.141L706.994 610.377Z" fill="url(#paint19_linear_29_4455)"/>
<path d="M684.135 613.071C683.403 612.989 682.682 612.876 681.961 612.763C681.443 612.682 680.929 612.592 680.418 612.495C679.97 612.41 679.525 612.319 679.082 612.221C678.473 612.087 677.871 611.937 677.275 611.778C676.805 611.654 676.332 611.533 675.871 611.394C675.665 611.332 675.46 611.269 675.256 611.203C674.455 610.948 673.663 610.678 672.895 610.378C672.893 610.378 672.892 610.377 672.892 610.377L668.128 613.144L659.865 608.373L659.855 611.989L668.118 616.76L672.881 613.992C673.651 614.293 674.445 614.563 675.248 614.819C675.451 614.884 675.656 614.947 675.861 615.009C676.068 615.071 676.27 615.141 676.479 615.201C676.736 615.274 677.005 615.325 677.264 615.393C677.861 615.551 678.462 615.701 679.072 615.836C679.27 615.88 679.46 615.939 679.66 615.98C679.905 616.03 680.159 616.063 680.406 616.11C680.919 616.208 681.434 616.297 681.953 616.379C682.189 616.416 682.419 616.468 682.656 616.501C683.142 616.57 683.63 616.632 684.12 616.686L684.125 616.687L684.147 620.595H695.793L695.803 616.979H684.157L684.135 613.071Z" fill="url(#paint20_linear_29_4455)"/>
<path d="M711.781 613.141L706.994 610.377C703.551 611.73 699.73 612.629 695.78 613.071L695.802 616.979H684.156L684.134 613.071C680.179 612.629 676.349 611.73 672.89 610.377L668.127 613.145L659.864 608.374L664.627 605.606C662.28 603.607 660.714 601.391 659.939 599.102H653.192L653.154 592.357H659.901C660.65 590.068 662.198 587.856 664.516 585.853L659.729 583.089L667.939 578.318L672.726 581.082C676.177 579.733 679.99 578.83 683.94 578.388L683.918 574.48H695.563L695.585 578.388C699.54 578.83 703.363 579.733 706.83 581.082L711.585 578.318L719.849 583.089L715.093 585.852C717.433 587.856 719.006 590.067 719.781 592.356H726.528L726.566 599.102H719.819C719.069 601.391 717.529 603.607 715.204 605.606L719.991 608.37L711.781 613.141ZM679.096 601.988C685.079 605.442 694.741 605.438 700.686 601.984C706.63 598.529 706.606 592.933 700.622 589.478C694.639 586.023 684.969 586.023 679.025 589.478C673.082 592.933 673.113 598.534 679.096 601.988Z" fill="white"/>
<path d="M632.426 610.993L632.41 607.96L632.402 610.766L632.419 613.8L632.426 610.993Z" fill="url(#paint21_linear_29_4455)"/>
<path d="M660.294 614.642L656.603 616.786L656.595 619.593L660.286 617.448L660.294 614.642Z" fill="url(#paint22_linear_29_4455)"/>
<path d="M617.353 616.786L613.638 614.642L613.63 617.448L617.345 619.593L617.353 616.786Z" fill="url(#paint23_linear_29_4455)"/>
<path d="M625.233 626.507C625.252 626.406 625.283 626.305 625.309 626.204C625.34 626.086 625.369 625.967 625.411 625.85C625.446 625.753 625.491 625.657 625.533 625.561C625.586 625.438 625.64 625.314 625.706 625.193C625.753 625.104 625.811 625.017 625.865 624.929C625.951 624.79 626.042 624.652 626.143 624.516C626.203 624.435 626.269 624.356 626.335 624.277C626.487 624.094 626.655 623.913 626.837 623.737C626.903 623.673 626.963 623.608 627.033 623.545C627.147 623.442 627.274 623.344 627.398 623.244C627.507 623.156 627.612 623.068 627.729 622.982C627.863 622.885 628.011 622.792 628.156 622.698C628.305 622.601 628.446 622.502 628.606 622.409C628.961 622.203 629.338 622.018 629.724 621.843C629.835 621.793 629.948 621.747 630.061 621.699C630.364 621.572 630.675 621.454 630.993 621.346C631.107 621.307 631.218 621.265 631.334 621.229C631.534 621.166 631.738 621.111 631.943 621.055C632.098 621.013 632.252 620.967 632.41 620.929C632.624 620.877 632.844 620.834 633.062 620.79C633.212 620.76 633.361 620.725 633.512 620.699C633.956 620.621 634.406 620.559 634.86 620.511C634.999 620.496 635.14 620.488 635.279 620.476C635.546 620.454 635.813 620.434 636.081 620.423C636.252 620.415 636.424 620.412 636.595 620.409C636.811 620.405 637.028 620.403 637.244 620.406C637.425 620.408 637.606 620.414 637.787 620.421C637.988 620.429 638.188 620.439 638.388 620.453C638.571 620.466 638.754 620.481 638.935 620.499C639.133 620.518 639.33 620.54 639.527 620.565C639.704 620.588 639.881 620.612 640.057 620.64C640.268 620.673 640.477 620.71 640.685 620.749C640.85 620.78 641.014 620.813 641.176 620.848C641.424 620.903 641.669 620.964 641.911 621.028C642.047 621.064 642.184 621.098 642.318 621.137C642.753 621.264 643.178 621.406 643.589 621.566C643.793 621.645 643.99 621.733 644.187 621.82C644.289 621.865 644.395 621.906 644.494 621.954C644.793 622.096 645.084 622.246 645.363 622.408C647.698 623.756 648.863 625.525 648.858 627.291L648.866 624.485C648.871 622.719 647.705 620.95 645.37 619.602C645.091 619.441 644.8 619.29 644.501 619.148C644.401 619.101 644.295 619.059 644.193 619.014C644.017 618.936 643.843 618.854 643.661 618.782C643.64 618.774 643.617 618.768 643.596 618.76C643.184 618.6 642.759 618.458 642.323 618.33C642.288 618.32 642.256 618.306 642.221 618.296C642.122 618.268 642.019 618.248 641.919 618.222C641.675 618.157 641.431 618.096 641.181 618.041C641.115 618.026 641.051 618.006 640.985 617.993C640.888 617.973 640.787 617.96 640.689 617.942C640.481 617.902 640.272 617.866 640.062 617.833C639.977 617.82 639.895 617.801 639.81 617.789C639.718 617.776 639.625 617.77 639.532 617.758C639.335 617.733 639.138 617.711 638.939 617.692C638.845 617.683 638.752 617.668 638.657 617.661C638.569 617.654 638.48 617.653 638.392 617.647C638.191 617.633 637.991 617.623 637.789 617.615C637.689 617.611 637.589 617.602 637.489 617.599C637.409 617.597 637.329 617.601 637.249 617.6C637.031 617.597 636.813 617.599 636.596 617.603C636.489 617.605 636.382 617.601 636.275 617.605C636.211 617.607 636.149 617.615 636.085 617.618C635.816 617.629 635.549 617.649 635.282 617.671C635.175 617.68 635.067 617.682 634.96 617.692C634.927 617.695 634.895 617.702 634.861 617.706C634.407 617.753 633.957 617.815 633.513 617.894C633.491 617.898 633.469 617.899 633.448 617.903C633.32 617.926 633.196 617.958 633.069 617.984C632.848 618.029 632.627 618.073 632.41 618.125C632.253 618.163 632.101 618.208 631.946 618.25C631.74 618.306 631.535 618.361 631.334 618.425C631.291 618.438 631.246 618.448 631.203 618.462C631.131 618.485 631.065 618.517 630.994 618.541C630.676 618.649 630.365 618.767 630.062 618.894C629.949 618.941 629.835 618.988 629.725 619.038C629.339 619.212 628.962 619.397 628.607 619.603C628.558 619.632 628.51 619.66 628.462 619.689C628.353 619.754 628.261 619.825 628.158 619.892C628.013 619.987 627.865 620.08 627.73 620.177C627.613 620.262 627.508 620.351 627.399 620.438C627.275 620.538 627.148 620.637 627.034 620.739C627.011 620.76 626.984 620.779 626.961 620.799C626.915 620.842 626.883 620.888 626.839 620.931C626.656 621.108 626.489 621.287 626.336 621.471C626.303 621.511 626.258 621.549 626.226 621.589C626.195 621.629 626.174 621.67 626.144 621.71C626.042 621.846 625.951 621.984 625.865 622.123C625.829 622.182 625.781 622.238 625.748 622.297C625.731 622.327 625.722 622.357 625.706 622.386C625.64 622.508 625.587 622.631 625.533 622.755C625.502 622.827 625.459 622.898 625.432 622.97C625.423 622.995 625.419 623.02 625.41 623.044C625.368 623.161 625.34 623.279 625.309 623.397C625.288 623.477 625.256 623.556 625.24 623.637C625.235 623.658 625.237 623.68 625.233 623.701C625.21 623.826 625.202 623.95 625.19 624.074C625.183 624.155 625.165 624.236 625.162 624.317C625.161 624.352 625.16 624.386 625.16 624.421L625.152 627.227C625.152 627.111 625.171 626.995 625.181 626.879C625.202 626.755 625.211 626.631 625.233 626.507Z" fill="url(#paint24_linear_29_4455)"/>
<path d="M660.271 627.069C660.216 627.238 660.15 627.406 660.083 627.574C660.038 627.689 659.989 627.803 659.938 627.917C659.891 628.024 659.842 628.131 659.79 628.238C659.735 628.351 659.676 628.464 659.615 628.577C659.559 628.681 659.502 628.784 659.442 628.887C659.366 629.018 659.284 629.148 659.2 629.278C659.139 629.373 659.078 629.468 659.013 629.563C658.922 629.696 658.823 629.828 658.724 629.959C658.659 630.046 658.595 630.134 658.526 630.22C658.332 630.463 658.128 630.704 657.909 630.941C657.88 630.973 657.846 631.004 657.816 631.036C657.622 631.242 657.418 631.446 657.204 631.647C657.036 631.805 656.868 631.962 656.688 632.116L656.68 634.922C656.827 634.795 656.971 634.667 657.11 634.538C657.14 634.51 657.166 634.48 657.196 634.452C657.409 634.252 657.612 634.05 657.805 633.845C657.836 633.812 657.87 633.78 657.9 633.747C658.119 633.51 658.323 633.269 658.517 633.027C658.533 633.006 658.553 632.986 658.569 632.966C658.621 632.899 658.665 632.831 658.716 632.765C658.814 632.634 658.912 632.503 659.004 632.37C659.069 632.275 659.13 632.179 659.191 632.084C659.274 631.954 659.356 631.824 659.432 631.693C659.457 631.65 659.487 631.608 659.511 631.565C659.546 631.504 659.573 631.443 659.605 631.382C659.665 631.27 659.723 631.158 659.779 631.045C659.832 630.937 659.881 630.83 659.929 630.722C659.979 630.609 660.028 630.495 660.073 630.381C660.093 630.33 660.118 630.28 660.137 630.229C660.181 630.111 660.223 629.993 660.262 629.875H665.498L665.506 627.069H660.271Z" fill="url(#paint25_linear_29_4455)"/>
<path d="M617.431 634.923L617.439 632.117C615.617 630.566 614.403 628.846 613.801 627.069H608.565L608.557 629.875H613.793C614.394 631.652 615.609 633.372 617.431 634.923Z" fill="url(#paint26_linear_29_4455)"/>
<path d="M650.318 635.819C649.69 636.066 649.043 636.289 648.386 636.497C648.024 636.612 647.649 636.708 647.279 636.81C646.932 636.906 646.591 637.01 646.238 637.096C645.86 637.187 645.474 637.261 645.09 637.34C644.734 637.414 644.382 637.496 644.021 637.56C643.228 637.7 642.426 637.819 641.616 637.91L641.608 640.716C642.418 640.626 643.22 640.507 644.012 640.366C644.051 640.359 644.091 640.356 644.13 640.349C644.455 640.291 644.769 640.212 645.091 640.145C645.471 640.066 645.855 639.994 646.229 639.903C646.584 639.817 646.929 639.712 647.278 639.615C647.646 639.513 648.017 639.418 648.378 639.304C648.421 639.29 648.466 639.281 648.509 639.267C649.123 639.07 649.724 638.857 650.311 638.626L654.026 640.77L660.398 637.067L660.406 634.261L654.035 637.963L650.318 635.819Z" fill="url(#paint27_linear_29_4455)"/>
<path d="M632.578 637.91C632.01 637.847 631.45 637.758 630.891 637.671C630.489 637.608 630.09 637.539 629.694 637.463C629.346 637.397 629.001 637.326 628.657 637.25C628.184 637.146 627.718 637.029 627.255 636.907C626.89 636.811 626.523 636.717 626.166 636.609C626.006 636.561 625.847 636.512 625.689 636.461C625.067 636.263 624.453 636.054 623.857 635.821C623.856 635.821 623.854 635.82 623.854 635.82L620.157 637.967L613.744 634.265L613.736 637.071L620.149 640.774L623.845 638.626C624.442 638.86 625.058 639.069 625.682 639.268C625.84 639.318 625.998 639.367 626.158 639.415C626.319 639.463 626.476 639.517 626.638 639.564C626.837 639.621 627.046 639.66 627.247 639.713C627.711 639.836 628.177 639.952 628.65 640.056C628.804 640.09 628.951 640.136 629.106 640.168C629.296 640.207 629.493 640.232 629.685 640.268C630.083 640.344 630.482 640.413 630.885 640.476C631.068 640.505 631.247 640.545 631.431 640.571C631.808 640.624 632.187 640.672 632.567 640.715L632.571 640.716L632.588 643.749H641.626L641.634 640.943H632.596L632.578 637.91Z" fill="url(#paint28_linear_29_4455)"/>
<path d="M654.033 637.964L650.318 635.819C647.646 636.869 644.681 637.567 641.615 637.91L641.632 640.943H632.594L632.577 637.91C629.508 637.567 626.535 636.869 623.851 635.819L620.155 637.967L613.742 634.265L617.438 632.117C615.616 630.566 614.402 628.846 613.8 627.069H608.564L608.535 621.834H613.771C614.353 620.057 615.553 618.341 617.352 616.786L613.637 614.641L620.008 610.938L623.723 613.083C626.401 612.036 629.36 611.335 632.426 610.992L632.409 607.959H641.446L641.463 610.992C644.532 611.335 647.499 612.036 650.189 613.083L653.879 610.938L660.292 614.641L656.601 616.785C658.417 618.34 659.637 620.056 660.239 621.833H665.475L665.504 627.068H660.268C659.686 628.845 658.491 630.564 656.687 632.116L660.402 634.261L654.033 637.964ZM628.668 629.309C633.311 631.99 640.81 631.987 645.423 629.306C650.036 626.625 650.017 622.282 645.374 619.601C640.731 616.92 633.227 616.92 628.613 619.601C624 622.282 624.025 626.628 628.668 629.309Z" fill="white"/>
<path d="M243.962 278.965V571.789C243.962 576.951 249.55 580.177 254.021 577.596L265.523 570.955C272.449 566.956 276.715 559.566 276.715 551.569V263.757C276.715 254.53 266.726 248.763 258.735 253.377C249.593 258.655 243.962 268.409 243.962 278.965Z" fill="#3C7FBE"/>
<path d="M249.829 281.359V574.183C249.829 579.345 255.417 582.571 259.888 579.99L271.39 573.349C278.316 569.35 282.582 561.96 282.582 553.963V266.15C282.582 256.923 272.593 251.156 264.602 255.77C255.461 261.049 249.829 270.803 249.829 281.359Z" fill="url(#paint29_linear_29_4455)"/>
<path d="M266.338 300.508V308.826C266.338 311.106 267.546 313.215 269.512 314.37L380.974 379.82V360.908L271.353 297.614C269.124 296.327 266.338 297.935 266.338 300.508Z" fill="url(#paint30_linear_29_4455)"/>
<path d="M266.338 346.567V354.885C266.338 357.165 267.546 359.274 269.512 360.429L380.974 425.879V406.967L271.353 343.672C269.124 342.385 266.338 343.994 266.338 346.567Z" fill="url(#paint31_linear_29_4455)"/>
<path d="M364.598 349.399V642.223C364.598 647.385 370.186 650.611 374.657 648.03L386.159 641.389C393.085 637.39 397.351 630 397.351 622.003V334.191C397.351 324.964 387.362 319.197 379.371 323.811C370.229 329.089 364.598 338.843 364.598 349.399Z" fill="#3C7FBE"/>
<path d="M372.766 352.399V645.223C372.766 650.385 378.354 653.611 382.825 651.03L394.327 644.389C401.253 640.39 405.519 633 405.519 625.003V337.191C405.519 327.964 395.53 322.197 387.539 326.811C378.397 332.089 372.766 341.843 372.766 352.399Z" fill="white"/>
<path d="M372.766 352.399V645.223C372.766 650.385 378.354 653.611 382.825 651.03L394.327 644.389C401.253 640.39 405.519 633 405.519 625.003V337.191C405.519 327.964 395.53 322.197 387.539 326.811C378.397 332.089 372.766 341.843 372.766 352.399Z" fill="url(#paint32_linear_29_4455)"/>
<path d="M266.338 300.508V308.826C266.338 311.106 267.546 313.215 269.512 314.37L380.974 379.82V360.908L271.353 297.614C269.124 296.327 266.338 297.935 266.338 300.508Z" fill="url(#paint33_linear_29_4455)"/>
<path d="M266.338 346.567V354.885C266.338 357.165 267.546 359.274 269.512 360.429L380.974 425.879V406.967L271.353 343.672C269.124 342.385 266.338 343.994 266.338 346.567Z" fill="url(#paint34_linear_29_4455)"/>
<path d="M783.574 472.62C783.574 472.62 781.593 479.274 777.203 483.746C772.813 488.218 773.687 491.43 779.428 491.118C785.168 490.806 790.972 483.338 794.491 481.71C798.01 480.082 798.282 467.691 790.928 470.156C783.574 472.62 783.574 472.62 783.574 472.62Z" fill="#222457"/>
<path d="M809.813 479.752C809.813 479.752 807.572 487.281 802.604 492.341C797.636 497.401 798.626 501.036 805.121 500.683C811.616 500.33 818.183 491.88 822.165 490.037C826.147 488.194 826.454 474.173 818.133 476.963C809.812 479.753 809.813 479.752 809.813 479.752Z" fill="#222457"/>
<path d="M775.098 375.843C775.098 375.843 763.659 422.761 767.367 433.068C771.075 443.375 777.397 467.532 780.31 475.028C780.31 475.028 785.337 478.289 789.599 476.757C793.861 475.224 796.689 470.402 796.689 470.402C796.689 470.402 786.983 436.978 789.539 423.552C792.841 406.208 793.754 388.538 793.754 388.538L775.098 375.843Z" fill="#2A2F6D"/>
<path d="M822.473 481.928C822.343 481.998 822.213 482.078 822.063 482.158C820.923 482.778 818.443 483.148 817.053 483.698C815.493 484.308 814.093 484.148 812.913 483.648C810.373 482.568 808.823 479.918 808.823 479.918C808.823 479.918 807.803 479.878 804.023 472.418C800.223 464.938 796.233 451.868 792.613 432.648C790.433 421.078 790.253 398.428 790.303 387.458C790.313 383.618 790.363 381.198 790.363 381.198C790.363 381.198 795.173 381.608 800.793 383.538C805.293 385.088 810.503 381.228 813.993 385.328C814.123 385.478 814.243 385.638 814.363 385.798C821.623 395.598 815.273 427.388 816.153 430.988C817.043 434.638 817.703 448.968 819.743 454.498C822.513 462.058 824.373 479.578 824.373 479.578C824.373 479.578 824.833 480.488 822.473 481.928Z" fill="#306097"/>
<path d="M815.912 379.566C813.356 370.92 814.93 337.817 813.626 328.476C812.323 319.135 775.758 306.817 775.758 306.817C773.71 307.186 772.156 307.732 770.964 308.418L771.046 307.881C771.046 307.881 762.649 309.491 757.438 320.272C752.227 331.053 746.844 336.887 746.844 336.887C746.844 336.887 732.518 332.599 724.685 326.136C724.685 326.136 719.478 334.932 722.084 341.122C722.084 341.122 745.116 355.379 753.36 352.973C761.036 350.733 765.146 343.657 765.677 342.692C765.526 355.701 766.025 371.397 767.355 377.611C769.537 387.803 813.849 392.981 815.611 392.329C817.374 391.678 818.468 388.213 815.912 379.566Z" fill="white"/>
<g opacity="0.42">
<path opacity="0.42" d="M812.913 483.648C810.373 482.568 808.823 479.918 808.823 479.918C808.823 479.918 807.803 479.878 804.023 472.418C800.223 464.938 796.233 451.868 792.613 432.648C790.433 421.078 790.253 398.428 790.303 387.458C792.133 387.308 793.753 388.538 793.753 388.538C793.753 388.538 791.723 411.168 796.693 439.188C800.563 461.048 809.273 477.478 812.913 483.648Z" fill="url(#paint35_linear_29_4455)"/>
</g>
<path d="M815.612 392.33C814.682 392.67 801.639 394.772 789.539 390.752C786.739 389.822 783.969 388.812 781.389 387.752C773.999 384.702 768.119 381.172 767.359 377.612C766.029 371.402 765.529 355.702 765.679 342.692C765.649 342.752 765.599 342.832 765.539 342.942C764.619 344.522 760.559 350.872 753.359 352.972C745.119 355.382 722.089 341.122 722.089 341.122C721.429 339.562 721.269 337.842 721.399 336.132C721.769 331.062 724.689 326.142 724.689 326.142C732.519 332.602 746.849 336.892 746.849 336.892C746.849 336.892 752.229 331.052 757.439 320.272C760.299 314.352 764.119 311.202 766.989 309.562C769.339 308.212 771.049 307.882 771.049 307.882L770.969 308.422C772.159 307.732 773.709 307.182 775.759 306.822C775.759 306.822 812.319 319.132 813.629 328.482C813.779 329.522 813.889 330.842 813.959 332.402C813.969 332.462 813.969 332.502 813.969 332.502C814.129 335.602 814.199 339.602 814.229 343.962C814.339 357.182 814.209 373.802 815.909 379.562C818.468 388.212 817.372 391.68 815.612 392.33Z" fill="white"/>
<path d="M822.473 481.928C813.989 461.995 810.128 442.367 812.167 421.597C814.557 397.267 807.353 386.848 807.353 386.848L814.363 385.798C821.623 395.598 815.273 427.388 816.153 430.988C817.043 434.638 817.703 448.968 819.743 454.498C822.513 462.058 824.373 479.578 824.373 479.578C824.373 479.578 824.833 480.488 822.473 481.928Z" fill="url(#paint36_linear_29_4455)"/>
<path d="M815.612 392.33C814.682 392.67 801.639 394.772 789.539 390.752C793.679 388.812 797.599 385.232 799.299 378.702C803.239 363.512 801.629 315.302 813.969 332.502C814.629 345.012 813.649 371.902 815.909 379.562C818.468 388.212 817.372 391.68 815.612 392.33Z" fill="url(#paint37_linear_29_4455)"/>
<path d="M758.682 367.078C758.682 367.078 754.99 361.214 753.904 360.671C752.818 360.128 746.913 361.648 744.11 360.671C741.307 359.694 741.588 360.821 742.719 362.43C743.85 364.039 745.823 364.146 745.823 364.146C745.823 364.146 742.611 364.977 739.679 363.693C736.747 362.409 737.724 365.558 739.679 367.079C741.634 368.599 741.96 373.052 744.132 374.789C746.304 376.527 757.381 378.155 758.684 374.789C759.985 371.422 758.682 367.078 758.682 367.078Z" fill="#FDE0D9"/>
<path opacity="0.3" d="M803.416 328.844C803.416 328.844 797.056 326.322 791.878 339.913C786.7 353.504 783.785 365.743 773.08 368.528C762.374 371.313 789.737 384.069 796.689 368.135C803.641 352.2 803.416 328.844 803.416 328.844Z" fill="url(#paint38_linear_29_4455)"/>
<path opacity="0.3" d="M815.612 392.33C814.682 392.67 801.639 394.772 789.539 390.752C786.739 389.822 783.969 388.812 781.389 387.752C790.169 385.532 804.219 379.082 810.249 360.312C812.289 353.952 813.529 348.542 814.229 343.962C814.339 357.182 814.209 373.802 815.909 379.562C818.468 388.212 817.372 391.68 815.612 392.33Z" fill="url(#paint39_linear_29_4455)"/>
<path opacity="0.3" d="M767.367 324.612C767.367 324.612 766.827 335.462 765.537 342.942C764.617 344.522 760.557 350.872 753.357 352.972C745.117 355.382 722.086 341.122 722.086 341.122C721.426 339.562 721.266 337.842 721.396 336.132L722.626 335.262C722.626 335.262 742.607 351.982 753.247 347.422C763.897 342.862 767.367 324.612 767.367 324.612Z" fill="url(#paint40_linear_29_4455)"/>
<path d="M813.988 342.532C812.638 353.782 809.248 368.312 806.568 374.032C802.298 383.162 792.128 385.102 783.658 383.472C775.188 381.852 755.318 376.632 755.318 376.632C755.158 374.862 755.208 373.242 755.368 371.792C755.868 367.362 757.438 364.582 757.438 364.582C757.438 364.582 782.628 367.522 786.588 366.212C790.558 364.902 790.828 361.652 793.758 348.612C796.688 335.582 798.428 331.562 798.428 331.562C807.228 320.922 810.298 323.632 813.628 328.482C814.868 330.292 814.789 335.822 813.988 342.532Z" fill="white"/>
<path opacity="0.3" d="M814.577 332.402C814.476 331.742 813.706 328.001 808.528 323.311C802.804 318.15 787.616 316.14 775.073 311.369C771.932 310.169 769.247 309.659 766.988 309.559C769.369 308.209 771.102 307.879 771.102 307.879L771.021 308.419C772.227 307.729 773.797 307.179 775.874 306.819C775.874 306.819 812.916 319.131 814.243 328.483C814.395 329.521 814.506 330.841 814.577 332.402Z" fill="url(#paint41_linear_29_4455)"/>
<path d="M725.451 328.743C725.451 328.743 723.496 319.512 722.519 318.752C721.542 317.992 712.745 317.014 710.79 316.363C708.835 315.711 709.487 317.883 710.79 318.861C712.093 319.838 714.048 320.381 714.048 320.381C714.048 320.381 711.911 324.064 712.853 325.919C713.795 327.774 712.31 332.431 714.699 334.062C717.088 335.693 722.833 341.123 724.685 339.602C726.537 338.081 725.451 328.743 725.451 328.743Z" fill="#FDE0D9"/>
<path d="M790.188 303.822L789.258 315.692C788.238 318.122 779.908 322.712 777.738 322.342C775.568 321.962 778.118 317.502 778.118 317.502L778.378 314.992L778.908 309.952L778.938 309.682C778.938 309.682 778.768 310.992 771.928 308.382C765.088 305.772 770.288 282.152 770.288 282.152C770.288 282.152 771.278 276.612 777.798 275.642C784.308 274.662 789.038 281.182 791.138 284.432C793.238 287.692 790.188 303.822 790.188 303.822Z" fill="#FDE0D9"/>
<path d="M767.207 266.354C767.207 266.354 758.622 277.136 763.949 282.481C769.276 287.826 785.062 289.317 785.912 293.769C786.762 298.22 787.08 298.952 787.08 298.952C787.08 298.952 788.06 297.471 789.126 296.856C790.192 296.241 790.767 301.867 788.272 304.31C788.272 304.31 787.381 307.493 789.918 307.286C792.455 307.079 798.799 300.308 801.251 294.373C803.704 288.438 800.06 281.95 796.257 280.831C796.257 280.831 798.616 268.635 791.137 266.355C783.658 264.075 779.912 265.866 778.445 264.074C776.979 262.282 777.142 261.142 777.142 261.142L775.322 267.002C775.322 267.002 773.092 263.749 773.814 261.142C774.536 258.535 774.536 258.536 774.536 258.536C774.536 258.536 771.552 262.134 771.904 266.77C771.904 266.77 770.113 264.726 770.289 262.283L767.207 266.354Z" fill="#2A2F6D"/>
<path opacity="0.3" d="M813.988 342.532C812.638 353.782 809.248 368.312 806.568 374.032C802.298 383.162 792.128 385.102 783.658 383.472C775.188 381.852 755.318 376.632 755.318 376.632C755.158 374.862 755.208 373.242 755.368 371.792C759.808 371.812 766.808 372.152 773.818 373.722C785.398 376.312 797.778 382.882 804.948 368.532C808.629 361.152 811.789 350.832 813.988 342.532Z" fill="url(#paint42_linear_29_4455)"/>
<path d="M785.598 305.722C785.338 306.212 781.778 312.652 778.378 314.992L778.908 309.952C781.408 309.142 783.938 307.832 785.598 305.722Z" fill="#ECBFB9"/>
<path d="M682.779 367.52V260.328L752.545 301.238V407.803L682.779 367.52Z" fill="url(#paint43_linear_29_4455)"/>
<path d="M683.278 261.201L752.045 301.524V406.938L683.278 367.232V261.201ZM682.278 259.455V367.809L753.045 408.67V300.951L682.278 259.455Z" fill="white"/>
<g opacity="0.68">
<g opacity="0.68">
<path opacity="0.68" d="M690.229 283.476V287.935L708.963 298.741V294.281L690.229 283.476Z" fill="white"/>
</g>
<g opacity="0.68">
<path opacity="0.68" d="M690.229 291.622V296.082L708.963 306.887V302.428L690.229 291.622Z" fill="white"/>
</g>
<g opacity="0.68">
<path opacity="0.68" d="M690.229 299.768V304.228L708.963 315.034V310.574L690.229 299.768Z" fill="white"/>
</g>
<g opacity="0.68">
<path opacity="0.68" d="M690.229 307.915V312.374L708.963 323.18V318.72L690.229 307.915Z" fill="white"/>
</g>
<g opacity="0.68">
<path opacity="0.68" d="M690.229 316.062V320.521L708.963 331.326V326.866L690.229 316.062Z" fill="white"/>
</g>
<g opacity="0.68">
<path opacity="0.68" d="M690.229 340.501V344.96L708.963 355.765V351.306L690.229 340.501Z" fill="white"/>
</g>
<g opacity="0.68">
<path opacity="0.68" d="M690.229 348.647V353.107L708.963 363.912V359.452L690.229 348.647Z" fill="white"/>
</g>
<g opacity="0.68">
<path opacity="0.68" d="M718.03 335.187V339.647L736.764 350.452V345.992L718.03 335.187Z" fill="white"/>
</g>
<g opacity="0.68">
<path opacity="0.68" d="M718.03 343.334V347.793L736.764 358.598V354.139L718.03 343.334Z" fill="white"/>
</g>
</g>
<path d="M545.877 362.897L545.886 366.198C545.891 368.144 548 369.354 549.682 368.378L565.25 359.346C566.032 358.892 566.512 358.056 566.509 357.153L566.5 353.852C566.495 351.906 564.386 350.696 562.704 351.673L547.137 360.704C546.354 361.157 545.874 361.993 545.877 362.897Z" fill="#E7F6FD"/>
<path d="M496.631 407.733L496.64 411.041C496.646 412.983 498.749 414.194 500.432 413.222L565.291 375.776C566.076 375.323 566.558 374.485 566.556 373.58L566.546 370.273C566.541 368.33 564.437 367.12 562.754 368.091L497.894 405.537C497.111 405.99 496.628 406.827 496.631 407.733Z" fill="#E7F6FD"/>
<g opacity="0.53">
<g opacity="0.53">
<path opacity="0.53" d="M523.465 425.158L523.474 428.465C523.48 430.408 525.583 431.619 527.266 430.647L565.386 408.639C566.17 408.186 566.652 407.348 566.649 406.443L566.64 403.135C566.635 401.192 564.531 399.982 562.848 400.953L524.729 422.961C523.945 423.414 523.462 424.252 523.465 425.158Z" fill="#E7F6FD"/>
</g>
</g>
<path d="M506.735 418.357L506.744 421.665C506.749 423.608 508.853 424.819 510.536 423.847L565.338 392.207C566.122 391.754 566.604 390.916 566.602 390.011L566.593 386.703C566.588 384.76 564.483 383.55 562.801 384.521L507.998 416.161C507.215 416.614 506.733 417.452 506.735 418.357Z" fill="#E7F6FD"/>
<path d="M739.321 619.096C737.568 618.797 735.778 618.318 733.967 617.617C718.049 611.453 712.058 599.435 709.966 593.282C709.298 591.317 710.497 589.173 712.475 588.786L715.335 588.226L712.139 588.852L712.448 588.79C714.016 588.476 715.549 589.389 716.076 590.948C717.727 595.835 722.684 605.994 736.303 611.268C745.151 614.693 753.692 611.263 757.758 609.09C759.216 608.311 760.982 608.748 761.901 610.136C763.013 611.816 762.431 614.151 760.667 615.096C756.404 617.38 748.377 620.641 739.321 619.096Z" fill="#AECFDC"/>
<path d="M740.583 712.601C725.559 703.926 725.559 689.683 740.583 680.949C755.607 672.215 780.192 672.215 795.215 680.949C810.239 689.683 810.239 703.926 795.215 712.601C780.191 721.276 755.607 721.276 740.583 712.601Z" fill="#E7F6FD"/>
<path d="M706.553 577.481C706.553 577.481 713.135 579.748 714.83 585.043C716.526 590.337 713.598 596.29 708.924 596.538C704.25 596.786 699.352 593.308 699.352 593.308L701.207 587.071C701.207 587.071 704.535 589.97 707.253 589.769C709.971 589.567 711.107 583.754 705.006 581.927L706.553 577.481Z" fill="#17A1DB"/>
<path d="M741.19 675.948C726.166 667.273 726.166 653.03 741.19 644.297C756.214 635.563 780.798 635.563 795.822 644.297C810.846 653.031 810.846 667.274 795.822 675.948C780.798 684.622 756.213 684.623 741.19 675.948Z" fill="#2A2F6D"/>
<path d="M743.713 663.462C729.312 655.938 729.312 643.585 743.713 636.01C758.114 628.435 781.679 628.435 796.08 636.01C810.481 643.585 810.481 655.938 796.08 663.462C781.679 670.985 758.114 670.985 743.713 663.462Z" fill="#2A2F6D"/>
<path d="M806.921 650.89H806.362V663.645H806.921V650.89Z" fill="#2A2F6D"/>
<path d="M767.088 666.376C765.101 666.376 762.966 666.333 760.371 666.238C750.949 665.896 746.401 664.735 739.211 660.834C734.07 658.044 731.212 653.795 731.162 648.869H731.137V546.357L731.161 546.356C731.129 540.086 736.033 530.53 745.186 525.168C754.541 519.687 766.621 519.227 777.208 519.226C786.7 519.226 794.52 522.976 798.335 525.212C800.521 526.492 802.288 527.974 803.606 529.615L803.165 529.957C803.578 530.512 803.928 531.017 804.233 531.486L804.705 531.193C805.532 532.582 806.066 534.066 806.29 535.623L806.309 535.752L806.304 535.768L806.318 535.882C806.394 536.512 806.421 537.153 806.396 537.785L806.391 537.918L806.42 537.974V647.516H806.397C806.249 653.672 801.814 658.287 792.442 662.037C784.836 665.079 777.254 666.376 767.088 666.376Z" fill="url(#paint44_linear_29_4455)"/>
<path d="M777.21 519.725C786.583 519.725 794.311 523.432 798.083 525.642C800.209 526.887 801.926 528.324 803.205 529.913L802.765 530.253C803.153 530.776 803.497 531.268 803.815 531.758L804.286 531.465C805.075 532.794 805.583 534.21 805.796 535.693L805.797 535.701L805.793 535.711L805.821 535.94C805.895 536.549 805.92 537.162 805.897 537.763L805.887 538.029L805.922 538.095V646.793H805.898L805.9 647.498C805.757 653.431 801.422 657.903 792.258 661.569C784.716 664.587 777.19 665.874 767.093 665.874C765.111 665.874 762.982 665.83 760.391 665.737C751.063 665.399 746.562 664.25 739.452 660.393C734.478 657.694 731.712 653.599 731.664 648.863H731.639V546.353H731.663C731.647 543.201 732.902 539.328 735.106 535.727C736.88 532.829 740.113 528.719 745.441 525.598C754.69 520.18 766.689 519.726 777.211 519.725H777.21ZM777.21 518.725H777.209C766.262 518.725 754.325 519.233 744.934 524.735C735.511 530.256 730.628 539.927 730.661 546.359L730.637 543.709V650.858L730.662 648.874C730.71 653.608 733.316 658.204 738.973 661.273C746.306 665.252 751.043 666.401 760.353 666.738C762.673 666.822 764.912 666.876 767.091 666.876C776.008 666.876 783.953 665.97 792.628 662.499C802.523 658.54 806.75 653.68 806.899 647.523L806.898 646.792C806.905 647.038 806.905 647.281 806.899 647.523L806.922 660.664V537.861C806.911 537.842 806.907 537.822 806.897 537.803C806.923 537.136 806.894 536.474 806.815 535.821C806.872 535.657 806.922 535.552 806.922 535.552H806.787C806.197 531.441 803.501 527.658 798.59 524.78C792.986 521.498 785.374 518.725 777.21 518.725ZM804.653 531.214C804.343 530.737 803.986 530.223 803.567 529.658C803.973 530.162 804.335 530.681 804.653 531.214Z" fill="white"/>
<g opacity="0.5">
<path opacity="0.5" d="M806.193 649.533V542.304C806.193 542.304 799.469 531.453 787.911 532.616C776.353 533.779 774.488 540.367 774.488 540.367V659.726C774.488 659.726 774.631 662.639 776.509 663.646C782.197 666.697 790.921 665.316 804.23 654.89C806.196 653.349 805.331 652.146 806.193 649.533Z" fill="url(#paint45_linear_29_4455)"/>
</g>
<path d="M757.003 647.764C760.811 647.764 763.899 642.951 763.899 637.013C763.899 631.075 760.811 626.262 757.003 626.262C753.194 626.262 750.107 631.075 750.107 637.013C750.107 642.951 753.194 647.764 757.003 647.764Z" fill="url(#paint46_linear_29_4455)"/>
<path d="M718.835 645.252C720.475 645.941 722.242 646.498 724.146 646.879C740.885 650.225 752.391 643.302 757.459 639.234C759.078 637.935 759.217 635.483 757.756 634.094L755.644 632.086L758.004 634.33L757.776 634.112C756.622 633.005 754.838 632.952 753.557 633.985C749.541 637.222 739.904 643.131 725.583 640.269C716.28 638.409 710.915 630.929 708.651 626.913C707.839 625.473 706.114 624.894 704.594 625.571C702.754 626.391 701.992 628.674 702.972 630.418C705.344 634.633 710.366 641.693 718.835 645.252Z" fill="#CDE9F9"/>
<path d="M688.26 631.862C688.26 631.862 694.638 637.098 701.036 635.52C707.434 633.942 711.624 627.288 708.971 622.416C706.317 617.544 699.763 614.759 699.763 614.759L694.62 620.507C694.62 620.507 699.615 622.066 701.1 624.934C702.585 627.803 697.423 632.562 691.788 627.538L688.26 631.862Z" fill="#17A1DB"/>
<path d="M747.566 615.709H741.039C739.641 615.709 738.498 614.565 738.498 613.168C738.498 611.77 739.642 610.627 741.039 610.627H747.566C748.964 610.627 750.107 611.771 750.107 613.168C750.107 614.565 748.964 615.709 747.566 615.709Z" fill="white"/>
<path d="M477.264 552.009C481.173 569.798 469.92 587.388 452.132 591.298C434.343 595.208 416.754 583.956 412.846 566.167C408.937 548.378 420.19 530.788 437.978 526.878C455.766 522.969 473.355 534.22 477.264 552.009Z" fill="url(#paint47_linear_29_4455)"/>
<path d="M648.87 504.049C660.994 504.049 670.823 494.22 670.823 482.096C670.823 469.972 660.994 460.143 648.87 460.143C636.745 460.143 626.917 469.972 626.917 482.096C626.917 494.22 636.745 504.049 648.87 504.049Z" fill="url(#paint48_linear_29_4455)"/>
<path d="M488.624 623.946C497.452 623.946 504.61 616.789 504.61 607.96C504.61 599.131 497.452 591.974 488.624 591.974C479.795 591.974 472.638 599.131 472.638 607.96C472.638 616.789 479.795 623.946 488.624 623.946Z" fill="url(#paint49_linear_29_4455)"/>
<path d="M688.06 536.914C696.889 536.914 704.046 529.757 704.046 520.928C704.046 512.099 696.889 504.942 688.06 504.942C679.231 504.942 672.074 512.099 672.074 520.928C672.074 529.757 679.231 536.914 688.06 536.914Z" fill="url(#paint50_linear_29_4455)"/>
<path d="M525.252 585.539C534.081 585.539 541.238 578.382 541.238 569.553C541.238 560.724 534.081 553.567 525.252 553.567C516.423 553.567 509.266 560.724 509.266 569.553C509.266 578.382 516.423 585.539 525.252 585.539Z" fill="url(#paint51_linear_29_4455)"/>
<path d="M637.197 542.709C643.545 542.709 648.692 537.562 648.692 531.214C648.692 524.865 643.545 519.719 637.197 519.719C630.848 519.719 625.702 524.865 625.702 531.214C625.702 537.562 630.848 542.709 637.197 542.709Z" fill="url(#paint52_linear_29_4455)"/>
<path d="M593.736 563.782C598.15 563.782 601.729 560.203 601.729 555.789C601.729 551.375 598.15 547.796 593.736 547.796C589.321 547.796 585.743 551.375 585.743 555.789C585.743 560.203 589.321 563.782 593.736 563.782Z" fill="url(#paint53_linear_29_4455)"/>
<defs>
<linearGradient id="paint0_linear_29_4455" x1="238.755" y1="512.155" x2="738.493" y2="512.155" gradientUnits="userSpaceOnUse">
<stop stop-color="#28429A"/>
<stop offset="0.622" stop-color="#BD8AAE"/>
<stop offset="0.9305" stop-color="#21409A"/>
</linearGradient>
<linearGradient id="paint1_linear_29_4455" x1="245.793" y1="526.055" x2="720.933" y2="526.055" gradientUnits="userSpaceOnUse">
<stop offset="0.4112" stop-color="#21409A"/>
<stop offset="1" stop-color="#29ABE2" stop-opacity="0"/>
</linearGradient>
<linearGradient id="paint2_linear_29_4455" x1="565.943" y1="376.198" x2="655.818" y2="376.198" gradientUnits="userSpaceOnUse">
<stop stop-color="#21409A"/>
<stop offset="0.9984" stop-color="#BD8AAE"/>
</linearGradient>
<linearGradient id="paint3_linear_29_4455" x1="305.313" y1="396.488" x2="445.054" y2="396.488" gradientUnits="userSpaceOnUse">
<stop offset="0.0607" stop-color="#28A8E0"/>
<stop offset="0.9984" stop-color="#29ABE2" stop-opacity="0"/>
</linearGradient>
<linearGradient id="paint4_linear_29_4455" x1="305.313" y1="387.213" x2="608.5" y2="387.213" gradientUnits="userSpaceOnUse">
<stop offset="0.0607" stop-color="#28A8E0"/>
<stop offset="0.6744" stop-color="#29ABE2" stop-opacity="0"/>
</linearGradient>
<linearGradient id="paint5_linear_29_4455" x1="305.313" y1="442.518" x2="376.463" y2="442.518" gradientUnits="userSpaceOnUse">
<stop offset="0.0607" stop-color="#3C7FBE"/>
<stop offset="0.9984" stop-color="#29ABE2" stop-opacity="0"/>
</linearGradient>
<linearGradient id="paint6_linear_29_4455" x1="304.033" y1="148.918" x2="609.004" y2="148.918" gradientUnits="userSpaceOnUse">
<stop stop-color="#21409A"/>
<stop offset="0.9984" stop-color="#BD8AAE"/>
</linearGradient>
<linearGradient id="paint7_linear_29_4455" x1="446.649" y1="391.488" x2="592.631" y2="391.488" gradientUnits="userSpaceOnUse">
<stop offset="0.0607" stop-color="#28A8E0"/>
<stop offset="0.9984" stop-color="#29ABE2" stop-opacity="0"/>
</linearGradient>
<linearGradient id="paint8_linear_29_4455" x1="271.261" y1="539.448" x2="356.893" y2="539.448" gradientUnits="userSpaceOnUse">
<stop stop-color="#21409A"/>
<stop offset="0.9984" stop-color="#BD8AAE"/>
</linearGradient>
<linearGradient id="paint9_linear_29_4455" x1="476.06" y1="396.488" x2="587.22" y2="396.488" gradientUnits="userSpaceOnUse">
<stop stop-color="#21409A"/>
<stop offset="0.9984" stop-color="#BD8AAE"/>
</linearGradient>
<linearGradient id="paint10_linear_29_4455" x1="307.423" y1="149.193" x2="436.333" y2="149.193" gradientUnits="userSpaceOnUse">
<stop offset="0.034" stop-color="#444C9D"/>
<stop offset="0.2827" stop-color="#4162AB" stop-opacity="0.7421"/>
<stop offset="0.8385" stop-color="#3299D4" stop-opacity="0.1658"/>
<stop offset="0.9984" stop-color="#29ABE2" stop-opacity="0"/>
<stop offset="1" stop-color="#28A8E0"/>
</linearGradient>
<linearGradient id="paint11_linear_29_4455" x1="507.215" y1="657.243" x2="756.396" y2="657.243" gradientUnits="userSpaceOnUse">
<stop offset="0.0607" stop-color="#28A8E0"/>
<stop offset="0.9984" stop-color="#29ABE2" stop-opacity="0"/>
</linearGradient>
<linearGradient id="paint12_linear_29_4455" x1="507.215" y1="630.597" x2="756.396" y2="630.597" gradientUnits="userSpaceOnUse">
<stop stop-color="#21409A"/>
<stop offset="0.9984" stop-color="#BD8AAE"/>
</linearGradient>
<linearGradient id="paint13_linear_29_4455" x1="683.907" y1="578.241" x2="683.939" y2="578.241" gradientUnits="userSpaceOnUse">
<stop offset="0.0607" stop-color="#28A8E0"/>
<stop offset="0.9984" stop-color="#29ABE2" stop-opacity="0"/>
</linearGradient>
<linearGradient id="paint14_linear_29_4455" x1="715.082" y1="586.278" x2="719.848" y2="586.278" gradientUnits="userSpaceOnUse">
<stop offset="0.0607" stop-color="#28A8E0"/>
<stop offset="0.9984" stop-color="#29ABE2" stop-opacity="0"/>
</linearGradient>
<linearGradient id="paint15_linear_29_4455" x1="659.719" y1="586.278" x2="664.516" y2="586.278" gradientUnits="userSpaceOnUse">
<stop offset="0.0607" stop-color="#28A8E0"/>
<stop offset="0.9984" stop-color="#29ABE2" stop-opacity="0"/>
</linearGradient>
<linearGradient id="paint16_linear_29_4455" x1="674.578" y1="593.141" x2="705.127" y2="593.141" gradientUnits="userSpaceOnUse">
<stop offset="0.0607" stop-color="#28A8E0"/>
<stop offset="0.9984" stop-color="#29ABE2" stop-opacity="0"/>
</linearGradient>
<linearGradient id="paint17_linear_29_4455" x1="715.193" y1="604.162" x2="726.565" y2="604.162" gradientUnits="userSpaceOnUse">
<stop offset="0.0607" stop-color="#28A8E0"/>
<stop offset="0.9984" stop-color="#29ABE2" stop-opacity="0"/>
</linearGradient>
<linearGradient id="paint18_linear_29_4455" x1="653.182" y1="604.162" x2="664.627" y2="604.162" gradientUnits="userSpaceOnUse">
<stop offset="0.0607" stop-color="#28A8E0"/>
<stop offset="0.9984" stop-color="#29ABE2" stop-opacity="0"/>
</linearGradient>
<linearGradient id="paint19_linear_29_4455" x1="695.77" y1="612.563" x2="719.99" y2="612.563" gradientUnits="userSpaceOnUse">
<stop offset="0.0607" stop-color="#28A8E0"/>
<stop offset="0.9984" stop-color="#29ABE2" stop-opacity="0"/>
</linearGradient>
<linearGradient id="paint20_linear_29_4455" x1="659.854" y1="614.485" x2="695.802" y2="614.485" gradientUnits="userSpaceOnUse">
<stop offset="0.0607" stop-color="#28A8E0"/>
<stop offset="0.9984" stop-color="#29ABE2" stop-opacity="0"/>
</linearGradient>
<linearGradient id="paint21_linear_29_4455" x1="632.401" y1="610.88" x2="632.426" y2="610.88" gradientUnits="userSpaceOnUse">
<stop offset="0.0607" stop-color="#28A8E0"/>
<stop offset="0.9984" stop-color="#29ABE2" stop-opacity="0"/>
</linearGradient>
<linearGradient id="paint22_linear_29_4455" x1="656.595" y1="617.117" x2="660.294" y2="617.117" gradientUnits="userSpaceOnUse">
<stop offset="0.0607" stop-color="#28A8E0"/>
<stop offset="0.9984" stop-color="#29ABE2" stop-opacity="0"/>
</linearGradient>
<linearGradient id="paint23_linear_29_4455" x1="613.63" y1="617.117" x2="617.353" y2="617.117" gradientUnits="userSpaceOnUse">
<stop offset="0.0607" stop-color="#28A8E0"/>
<stop offset="0.9984" stop-color="#29ABE2" stop-opacity="0"/>
</linearGradient>
<linearGradient id="paint24_linear_29_4455" x1="625.161" y1="622.443" x2="648.87" y2="622.443" gradientUnits="userSpaceOnUse">
<stop offset="0.0607" stop-color="#28A8E0"/>
<stop offset="0.9984" stop-color="#29ABE2" stop-opacity="0"/>
</linearGradient>
<linearGradient id="paint25_linear_29_4455" x1="656.681" y1="630.996" x2="665.507" y2="630.996" gradientUnits="userSpaceOnUse">
<stop offset="0.0607" stop-color="#28A8E0"/>
<stop offset="0.9984" stop-color="#29ABE2" stop-opacity="0"/>
</linearGradient>
<linearGradient id="paint26_linear_29_4455" x1="608.557" y1="630.996" x2="617.439" y2="630.996" gradientUnits="userSpaceOnUse">
<stop offset="0.0607" stop-color="#28A8E0"/>
<stop offset="0.9984" stop-color="#29ABE2" stop-opacity="0"/>
</linearGradient>
<linearGradient id="paint27_linear_29_4455" x1="641.607" y1="637.516" x2="660.404" y2="637.516" gradientUnits="userSpaceOnUse">
<stop offset="0.0607" stop-color="#28A8E0"/>
<stop offset="0.9984" stop-color="#29ABE2" stop-opacity="0"/>
</linearGradient>
<linearGradient id="paint28_linear_29_4455" x1="613.735" y1="639.007" x2="641.633" y2="639.007" gradientUnits="userSpaceOnUse">
<stop offset="0.0607" stop-color="#28A8E0"/>
<stop offset="0.9984" stop-color="#29ABE2" stop-opacity="0"/>
</linearGradient>
<linearGradient id="paint29_linear_29_4455" x1="249.829" y1="417.522" x2="282.582" y2="417.522" gradientUnits="userSpaceOnUse">
<stop stop-color="#21409A"/>
<stop offset="0.9984" stop-color="#29ABE2" stop-opacity="0"/>
</linearGradient>
<linearGradient id="paint30_linear_29_4455" x1="266.338" y1="338.491" x2="380.974" y2="338.491" gradientUnits="userSpaceOnUse">
<stop stop-color="#BD8AAE"/>
<stop offset="1" stop-color="#2484C6" stop-opacity="0"/>
</linearGradient>
<linearGradient id="paint31_linear_29_4455" x1="266.338" y1="384.549" x2="380.974" y2="384.549" gradientUnits="userSpaceOnUse">
<stop stop-color="#BD8AAE"/>
<stop offset="1" stop-color="#2484C6" stop-opacity="0"/>
</linearGradient>
<linearGradient id="paint32_linear_29_4455" x1="372.766" y1="488.563" x2="405.519" y2="488.563" gradientUnits="userSpaceOnUse">
<stop stop-color="#A7A9AC"/>
<stop offset="0.4228" stop-color="#E6E7E8"/>
<stop offset="0.7598" stop-color="white"/>
</linearGradient>
<linearGradient id="paint33_linear_29_4455" x1="266.338" y1="338.491" x2="380.974" y2="338.491" gradientUnits="userSpaceOnUse">
<stop stop-color="#BD8AAE"/>
<stop offset="1" stop-color="#2484C6" stop-opacity="0"/>
</linearGradient>
<linearGradient id="paint34_linear_29_4455" x1="266.338" y1="384.549" x2="380.974" y2="384.549" gradientUnits="userSpaceOnUse">
<stop stop-color="#BD8AAE"/>
<stop offset="1" stop-color="#2484C6" stop-opacity="0"/>
</linearGradient>
<linearGradient id="paint35_linear_29_4455" x1="790.296" y1="435.547" x2="812.913" y2="435.547" gradientUnits="userSpaceOnUse">
<stop stop-color="#BD8AAE"/>
<stop offset="1" stop-color="#2484C6" stop-opacity="0"/>
</linearGradient>
<linearGradient id="paint36_linear_29_4455" x1="807.353" y1="433.863" x2="824.409" y2="433.863" gradientUnits="userSpaceOnUse">
<stop offset="0.1365" stop-color="#306097"/>
<stop offset="0.7591" stop-color="#1F4B75"/>
</linearGradient>
<linearGradient id="paint37_linear_29_4455" x1="789.539" y1="361.013" x2="817.421" y2="361.013" gradientUnits="userSpaceOnUse">
<stop stop-color="white"/>
<stop offset="0.9616" stop-color="#939598"/>
</linearGradient>
<linearGradient id="paint38_linear_29_4455" x1="770.625" y1="352.328" x2="803.417" y2="352.328" gradientUnits="userSpaceOnUse">
<stop offset="0.0016" stop-color="#D2D2D1"/>
<stop offset="1" stop-color="white"/>
</linearGradient>
<linearGradient id="paint39_linear_29_4455" x1="781.388" y1="368.571" x2="817.421" y2="368.571" gradientUnits="userSpaceOnUse">
<stop offset="0.0016" stop-color="#D2D2D1"/>
<stop offset="1" stop-color="white"/>
</linearGradient>
<linearGradient id="paint40_linear_29_4455" x1="721.354" y1="338.929" x2="767.367" y2="338.929" gradientUnits="userSpaceOnUse">
<stop stop-color="white"/>
<stop offset="0.794" stop-color="#808285"/>
</linearGradient>
<linearGradient id="paint41_linear_29_4455" x1="766.988" y1="319.609" x2="814.577" y2="319.609" gradientUnits="userSpaceOnUse">
<stop offset="0.0016" stop-color="#D2D2D1"/>
<stop offset="1" stop-color="white"/>
</linearGradient>
<linearGradient id="paint42_linear_29_4455" x1="755.22" y1="363.262" x2="813.988" y2="363.262" gradientUnits="userSpaceOnUse">
<stop stop-color="white"/>
<stop offset="0.8809" stop-color="#D2D2D1"/>
</linearGradient>
<linearGradient id="paint43_linear_29_4455" x1="682.779" y1="334.066" x2="752.545" y2="334.066" gradientUnits="userSpaceOnUse">
<stop stop-color="#BD8AAE"/>
<stop offset="1" stop-color="#2484C6" stop-opacity="0"/>
</linearGradient>
<linearGradient id="paint44_linear_29_4455" x1="731.136" y1="592.801" x2="806.42" y2="592.801" gradientUnits="userSpaceOnUse">
<stop offset="0.0607" stop-color="#28A8E0"/>
<stop offset="0.9984" stop-color="#29ABE2" stop-opacity="0"/>
</linearGradient>
<linearGradient id="paint45_linear_29_4455" x1="806.192" y1="598.799" x2="774.488" y2="598.799" gradientUnits="userSpaceOnUse">
<stop offset="0.4247" stop-color="white"/>
<stop offset="1" stop-color="#2484C6" stop-opacity="0"/>
</linearGradient>
<linearGradient id="paint46_linear_29_4455" x1="750.107" y1="637.013" x2="763.899" y2="637.013" gradientUnits="userSpaceOnUse">
<stop offset="0.2372" stop-color="#21409A"/>
<stop offset="0.6554" stop-color="#215DAB" stop-opacity="0.5476"/>
<stop offset="0.9984" stop-color="#29ABE2" stop-opacity="0"/>
</linearGradient>
<linearGradient id="paint47_linear_29_4455" x1="412.857" y1="566.162" x2="477.276" y2="552.008" gradientUnits="userSpaceOnUse">
<stop offset="0.0607" stop-color="#28A8E0"/>
<stop offset="0.9984" stop-color="#29ABE2" stop-opacity="0"/>
</linearGradient>
<linearGradient id="paint48_linear_29_4455" x1="627.441" y1="486.811" x2="670.325" y2="477.388" gradientUnits="userSpaceOnUse">
<stop offset="0.0607" stop-color="#28A8E0"/>
<stop offset="0.9984" stop-color="#29ABE2" stop-opacity="0"/>
</linearGradient>
<linearGradient id="paint49_linear_29_4455" x1="472.956" y1="611.448" x2="504.195" y2="604.597" gradientUnits="userSpaceOnUse">
<stop offset="0.0607" stop-color="#28A8E0"/>
<stop offset="0.9984" stop-color="#29ABE2" stop-opacity="0"/>
</linearGradient>
<linearGradient id="paint50_linear_29_4455" x1="672.455" y1="524.331" x2="703.694" y2="517.48" gradientUnits="userSpaceOnUse">
<stop offset="0.0607" stop-color="#28A8E0"/>
<stop offset="0.9984" stop-color="#29ABE2" stop-opacity="0"/>
</linearGradient>
<linearGradient id="paint51_linear_29_4455" x1="509.603" y1="573.018" x2="540.842" y2="566.167" gradientUnits="userSpaceOnUse">
<stop offset="0.0607" stop-color="#28A8E0"/>
<stop offset="0.9984" stop-color="#29ABE2" stop-opacity="0"/>
</linearGradient>
<linearGradient id="paint52_linear_29_4455" x1="625.932" y1="533.646" x2="648.393" y2="528.722" gradientUnits="userSpaceOnUse">
<stop offset="0.0607" stop-color="#28A8E0"/>
<stop offset="0.9984" stop-color="#29ABE2" stop-opacity="0"/>
</linearGradient>
<linearGradient id="paint53_linear_29_4455" x1="585.911" y1="557.512" x2="601.532" y2="554.087" gradientUnits="userSpaceOnUse">
<stop offset="0.0607" stop-color="#28A8E0"/>
<stop offset="0.9984" stop-color="#29ABE2" stop-opacity="0"/>
</linearGradient>
</defs>
</svg>
