<svg width="24" height="24" viewBox="0 0 24 24" fill="none" xmlns="http://www.w3.org/2000/svg">
<path d="M3.833 4H8.323L9.77 7.618L7.445 9.168C7.30808 9.25935 7.19583 9.38308 7.1182 9.52822C7.04057 9.67335 6.99997 9.83541 7 10C7.003 10.094 7 10.001 7 10.001V10.022C7.00059 10.0667 7.00259 10.1114 7.006 10.156C7.012 10.238 7.022 10.349 7.041 10.486C7.08 10.756 7.155 11.128 7.301 11.566C7.595 12.446 8.171 13.585 9.293 14.707C10.415 15.829 11.554 16.405 12.433 16.699C12.872 16.845 13.243 16.919 13.515 16.959C13.6685 16.9804 13.8231 16.9938 13.978 16.999L13.991 17H13.999C13.999 17 14.111 16.994 14 17C14.1857 16.9999 14.3676 16.9481 14.5255 16.8504C14.6834 16.7528 14.811 16.6131 14.894 16.447L15.564 15.107L20 15.847V20.167C17.889 20.472 12.187 20.773 7.707 16.293C3.227 11.813 3.527 6.11 3.833 4ZM9.073 10.486L10.88 9.282C11.2617 9.02737 11.5443 8.64922 11.6803 8.21096C11.8163 7.77271 11.7975 7.30102 11.627 6.875L10.18 3.257C10.0315 2.88591 9.77523 2.56781 9.44424 2.34376C9.11324 2.11971 8.7227 1.99997 8.323 2H3.781C2.872 2 2.017 2.631 1.868 3.617C1.528 5.859 1.067 12.481 6.293 17.707C11.519 22.933 18.141 22.471 20.383 22.132C21.369 21.982 22 21.128 22 20.219V15.847C22.0001 15.3736 21.8322 14.9155 21.5262 14.5542C21.2202 14.1929 20.796 13.9519 20.329 13.874L15.893 13.135C15.4711 13.0646 15.0377 13.1313 14.6565 13.3253C14.2753 13.5193 13.9663 13.8304 13.775 14.213L13.429 14.906C13.3066 14.8759 13.1855 14.8408 13.066 14.801C12.446 14.595 11.585 14.171 10.707 13.293C9.829 12.415 9.405 11.554 9.199 10.933C9.14981 10.7862 9.10809 10.637 9.074 10.486H9.073Z" fill="#08092A"/>
</svg>
